<svg width="40" height="40" viewBox="0 0 40 40" fill="none" xmlns="http://www.w3.org/2000/svg">
<path d="M11.6641 35.0002C11.6641 35.0002 12.4974 27.5002 18.3307 20.8335" stroke="#009FE3" stroke-width="2.5" stroke-linecap="round" stroke-linejoin="round"/>
<path d="M31.8817 7.06997L32.8717 17.3616C33.495 23.8383 28.6383 29.605 22.1633 30.2283C15.8083 30.84 10.0517 26.195 9.44 19.84C9.14607 16.7882 10.0765 13.7447 12.0265 11.3789C13.9766 9.01315 16.7866 7.51893 19.8383 7.22497L30.79 6.17163C30.9208 6.15899 31.0528 6.17224 31.1784 6.21064C31.3041 6.24904 31.421 6.31182 31.5223 6.3954C31.6237 6.47898 31.7076 6.58173 31.7693 6.69776C31.831 6.81379 31.8691 6.93917 31.8817 7.06997Z" stroke="#009FE3" stroke-width="2.5" stroke-linecap="round" stroke-linejoin="round"/>
</svg>
