<svg width="40" height="40" viewBox="0 0 40 40" fill="none" xmlns="http://www.w3.org/2000/svg">
<g clip-path="url(#clip0_447_7575)">
<path d="M29.1667 39.9998V30.8331C29.1667 29.507 28.6399 28.2352 27.7022 27.2976C26.7645 26.3599 25.4927 25.8331 24.1667 25.8331C22.5 25.8331 0.166667 28.3331 0.166667 28.3331M25 35.8331H0M40 35.8331H33.3333M15.8333 22.4998L20.6967 19.0248C21.1261 18.7178 21.4379 18.2734 21.5803 17.7652C21.7228 17.2569 21.6874 16.7152 21.48 16.2298L19.8383 12.4014C19.2233 12.0431 16.8833 10.8331 13.3333 10.8331C9.78333 10.8331 7.44333 12.0431 6.82833 12.3998L5.18667 16.2298C4.97884 16.7154 4.94321 17.2574 5.08568 17.7661C5.22815 18.2747 5.54016 18.7194 5.97 19.0264L10.8333 22.4998M32.5 28.9998C32.5 28.9998 34.1667 31.6664 36.25 31.6664C37.0235 31.6664 37.7654 31.3591 38.3124 30.8122C38.8594 30.2652 39.1667 29.5233 39.1667 28.7498C39.1667 27.1398 37.86 25.8398 36.25 25.8398C34.1667 25.8398 32.5 28.4998 32.5 28.4998V28.9998ZM13.0833 7.49976C13.0833 7.49976 10.4167 5.83309 10.4167 3.74976C10.4167 2.9771 10.7236 2.23608 11.27 1.68972C11.8163 1.14337 12.5573 0.836426 13.33 0.836426C14.1027 0.836426 14.8437 1.14337 15.39 1.68972C15.9364 2.23608 16.2433 2.9771 16.2433 3.74976C16.2433 5.83309 13.5833 7.49976 13.5833 7.49976H13.0833Z" stroke="#009FE3" stroke-width="2.5"/>
</g>
<defs>
<clipPath id="clip0_447_7575">
<rect width="40" height="40" fill="white"/>
</clipPath>
</defs>
</svg>
