<svg width="40" height="40" viewBox="0 0 40 40" fill="none" xmlns="http://www.w3.org/2000/svg">
<path fill-rule="evenodd" clip-rule="evenodd" d="M33.5042 17.7982V6.02148H35.5011V17.7982C35.5011 19.6653 36.1471 21.5104 36.9499 23.4145C37.512 24.7484 37.9983 26.3749 37.9983 27.9874C37.9973 30.3327 36.9449 31.8863 35.5561 32.8119C34.2221 33.7005 32.6386 33.9781 31.5074 33.9781C30.1425 33.9781 29.2439 33.6865 28.484 33.3141C28.2494 33.1993 28.0078 33.0645 27.7961 32.9477C27.7029 32.8957 27.6167 32.8485 27.5375 32.8059C27.2701 32.6549 26.9894 32.5289 26.6988 32.4295C26.4252 32.3376 25.8332 32.2737 25.0054 32.2607C24.2187 32.2488 23.338 32.2827 22.5652 32.3276C21.7196 32.3766 20.9687 32.6771 20.0491 33.0465C19.7696 33.1597 19.47 33.2768 19.1505 33.398C18.202 33.7534 16.941 33.9781 15.0329 33.9781C13.053 33.9781 12.1075 33.8642 11.4575 33.5857C11.2384 33.4874 11.0294 33.368 10.8335 33.2292C10.7736 33.1886 10.7127 33.1497 10.6507 33.1124C10.3633 33.3083 10.0474 33.4588 9.7142 33.5587C8.89547 33.8143 7.55855 33.9781 5.04844 33.9781C4.19177 33.9781 3.45692 33.7724 2.88381 33.3391C2.3087 32.9027 1.99519 32.3127 1.84742 31.7286C1.56286 30.6153 1.83344 29.3912 2.117 28.6354C2.18832 28.4451 2.31601 28.2811 2.483 28.1653C2.64999 28.0495 2.84834 27.9874 3.05155 27.9874H6.69589L7.32191 27.4861C8.48511 26.5556 9.80805 25.9046 11.149 25.4253C12.8793 24.8063 15.0709 23.8578 17.0578 22.5967C18.9988 21.3647 20.6522 19.8909 21.5458 18.2155L22.5263 7.92353L24.5132 8.11324L23.5148 18.597C23.5034 18.7192 23.4695 18.8384 23.4149 18.9484C22.3086 21.16 20.2618 22.9282 18.1281 24.2831C15.9785 25.648 13.6411 26.6544 11.8209 27.3054C10.6228 27.7348 9.51251 28.2909 8.56898 29.0447L7.94295 29.5469C7.58867 29.8302 7.1485 29.9845 6.69489 29.9843H3.80138C3.71352 30.4176 3.68955 30.8749 3.78141 31.2353C3.84531 31.4829 3.95115 31.6417 4.08893 31.7465C4.23071 31.8544 4.50828 31.9812 5.04844 31.9812C7.53059 31.9812 8.60692 31.8114 9.11912 31.6517C9.34477 31.5818 9.45061 31.5149 9.53048 31.46L9.56243 31.436C9.6483 31.3701 9.87994 31.1944 10.0936 31.0886C10.3302 30.97 10.6042 30.9503 10.8554 31.0336C11.3247 31.1904 11.6192 31.3561 11.8579 31.5119L12.0256 31.6227C12.1265 31.6906 12.1634 31.7156 12.2433 31.7495C12.4669 31.8454 13.0191 31.9812 15.0329 31.9812C16.7922 31.9812 17.7956 31.7725 18.4496 31.5279C18.6643 31.448 18.8919 31.3551 19.1306 31.2583C20.0951 30.8689 21.2443 30.4036 22.4494 30.3337C23.3107 30.2802 24.1735 30.2569 25.0364 30.2638C25.8511 30.2768 26.7298 30.3337 27.3298 30.5344C27.7821 30.6852 28.1566 30.8709 28.485 31.0476L28.8265 31.2353C29.0112 31.3382 29.173 31.428 29.3637 31.5219C29.8769 31.7735 30.476 31.9812 31.5074 31.9812C32.373 31.9812 33.5342 31.7595 34.4478 31.1505C35.3064 30.5783 36.0004 29.6348 36.0004 27.9874C36.0004 26.7453 35.618 25.3974 35.1098 24.1903C34.296 22.2593 33.5042 20.0946 33.5042 17.7982Z" fill="#009FE3"/>
<path fill-rule="evenodd" clip-rule="evenodd" d="M30.0111 19.0015C30.2759 19.0015 30.5299 19.1067 30.7171 19.2939C30.9044 19.4811 31.0096 19.7351 31.0096 19.9999V20.0219L31.0086 20.0618C31.0086 20.0931 31.0066 20.1354 31.0026 20.1886C30.96 20.8049 30.8402 21.4134 30.6462 21.9998C30.2867 23.0821 29.5439 24.44 28.0282 25.3496C27.801 25.4858 27.529 25.5263 27.272 25.4619C27.015 25.3976 26.7941 25.2338 26.6578 25.0066C26.5216 24.7794 26.4812 24.5074 26.5455 24.2504C26.6098 23.9934 26.7736 23.7725 27.0008 23.6363C27.9823 23.0482 28.4885 22.1596 28.7521 21.3698C28.8907 20.9503 28.9772 20.5154 29.0097 20.0748L29.0127 20.0069V19.9949C29.014 19.731 29.1198 19.4783 29.3069 19.2921C29.494 19.106 29.7472 19.0015 30.0111 19.0015Z" fill="#009FE3"/>
</svg>
