<svg width="40" height="40" viewBox="0 0 40 40" fill="none" xmlns="http://www.w3.org/2000/svg">
<path d="M38.1403 19.1608C38.0013 18.9165 37.8151 18.7022 37.5924 18.5305C37.3698 18.3588 37.1152 18.2331 36.8435 18.1608C35.611 17.8457 34.3344 17.74 33.0669 17.8483C33.7966 14.6249 33.32 12.0812 32.8403 10.5983C32.6729 10.0745 32.3165 9.63181 31.8404 9.35652C31.3644 9.08123 30.8028 8.99309 30.2653 9.10928C28.5969 9.48345 27.0175 10.1792 25.6153 11.1577C24.6395 9.03489 23.1641 7.17995 21.3153 5.75147C20.936 5.46563 20.4739 5.31104 19.9989 5.31104C19.5239 5.31104 19.0619 5.46563 18.6825 5.75147C16.8347 7.18058 15.36 9.03539 14.3841 11.1577C12.9814 10.179 11.4014 9.48325 9.73252 9.10928C9.19501 8.99323 8.63355 9.08164 8.15772 9.35725C7.68189 9.63287 7.32585 10.0759 7.15908 10.5999C6.67939 12.0827 6.20283 14.6265 6.93252 17.8499C5.66505 17.7416 4.38838 17.8472 3.15596 18.1624C2.88425 18.2347 2.62965 18.3604 2.407 18.532C2.18434 18.7037 1.99809 18.918 1.85908 19.1624C1.71299 19.4136 1.61841 19.6913 1.58085 19.9795C1.54329 20.2676 1.56351 20.5603 1.64033 20.8405C2.15752 22.7593 3.74971 26.4062 8.58096 29.2983C13.4122 32.1905 17.7013 32.1874 19.9997 32.1874C22.2981 32.1874 26.581 32.1874 31.4153 29.2983C36.2497 26.4093 37.8388 22.7593 38.356 20.839C38.4332 20.5589 38.454 20.2663 38.417 19.9782C38.3799 19.6901 38.2859 19.4122 38.1403 19.1608ZM26.3247 12.953C27.6112 11.983 29.0883 11.2961 30.6591 10.9374C30.7425 10.9204 30.8293 10.9349 30.9026 10.9782C30.9759 11.0215 31.0306 11.0905 31.056 11.1718C31.6716 13.0812 32.2763 17.0312 29.4013 22.0312C28.2471 24.0032 26.7679 25.7661 25.0263 27.2452C26.2263 25.1562 27.1872 22.3327 27.1872 18.6202C27.2019 16.6974 26.9107 14.7844 26.3247 12.953ZM8.94346 11.1765C8.9679 11.0943 9.02215 11.0243 9.09557 10.98C9.16899 10.9358 9.25628 10.9206 9.34033 10.9374C10.9111 11.2961 12.3883 11.983 13.6747 12.953C13.0887 14.7844 12.7975 16.6974 12.8122 18.6202C12.8122 22.3327 13.7731 25.1593 14.97 27.2405C13.2279 25.7618 11.7487 23.9989 10.595 22.0265C7.72314 17.0312 8.32783 13.0812 8.94346 11.1765ZM9.54346 27.6874C5.27783 25.139 3.89502 21.9968 3.44971 20.3437C3.43803 20.3017 3.43491 20.2578 3.44055 20.2145C3.44619 20.1713 3.46046 20.1297 3.48252 20.0921C3.51632 20.0317 3.57238 19.9868 3.63877 19.9671C4.90158 19.6535 6.21451 19.5966 7.49971 19.7999C7.89595 20.8977 8.38904 21.9582 8.97314 22.9687C10.5762 25.7351 12.7622 28.1194 15.3794 29.9562C13.3161 29.5479 11.3407 28.78 9.54346 27.6874ZM19.9997 30.1343C18.6435 29.1655 14.6872 25.728 14.6872 18.6202C14.6872 11.8452 18.2716 8.41085 19.8122 7.24835C19.8663 7.20778 19.9321 7.18585 19.9997 7.18585C20.0673 7.18585 20.1331 7.20778 20.1872 7.24835C21.7278 8.41085 25.3122 11.8452 25.3122 18.6202C25.3122 25.7718 21.3763 29.1671 19.9997 30.1343ZM36.5466 20.3499C36.1013 21.9968 34.7185 25.139 30.4528 27.6937C28.6536 28.784 26.6766 29.5493 24.6122 29.9546C27.2294 28.1179 29.4154 25.7335 31.0185 22.9671C31.6052 21.9574 32.1009 20.8975 32.4997 19.7999C33.7863 19.5982 35.1004 19.6572 36.3638 19.9733C36.4302 19.9931 36.4862 20.0379 36.52 20.0983C36.5416 20.1362 36.5553 20.1779 36.5604 20.2211C36.5655 20.2643 36.5618 20.3081 36.5497 20.3499H36.5466Z" fill="#009FE3"/>
</svg>
