<svg width="40" height="40" viewBox="0 0 40 40" fill="none" xmlns="http://www.w3.org/2000/svg">
<path d="M19.9981 22.3501L15.7414 26.6085C16.5656 28.0062 16.8517 29.6566 16.5461 31.2502C16.2404 32.8438 15.3641 34.2712 14.0813 35.2649C12.7985 36.2586 11.1973 36.7503 9.57792 36.6479C7.95851 36.5455 6.43204 35.8559 5.28466 34.7086C4.13728 33.5612 3.44775 32.0347 3.34533 30.4153C3.24291 28.7959 3.73463 27.1947 4.72832 25.9119C5.72201 24.6291 7.14944 23.7528 8.74304 23.4472C10.3366 23.1415 11.987 23.4276 13.3848 24.2518L17.6414 19.9951L7.60644 9.96012C7.29677 9.65057 7.05112 9.28305 6.88352 8.87854C6.71592 8.47403 6.62965 8.04047 6.62965 7.60262C6.62965 7.16476 6.71592 6.7312 6.88352 6.32669C7.05112 5.92219 7.29677 5.55466 7.60644 5.24512L19.9981 17.6368L32.3898 5.24512C32.6994 5.55466 32.9451 5.92219 33.1127 6.32669C33.2803 6.7312 33.3666 7.16476 33.3666 7.60262C33.3666 8.04047 33.2803 8.47403 33.1127 8.87854C32.9451 9.28305 32.6994 9.65057 32.3898 9.96012L22.3564 19.9935L26.6114 24.2501C28.0092 23.426 29.6596 23.1399 31.2532 23.4455C32.8468 23.7511 34.2742 24.6275 35.2679 25.9103C36.2616 27.1931 36.7533 28.7942 36.6509 30.4136C36.5485 32.033 35.8589 33.5595 34.7116 34.7069C33.5642 35.8543 32.0377 36.5438 30.4183 36.6462C28.7989 36.7486 27.1977 36.2569 25.9149 35.2632C24.6321 34.2695 23.7558 32.8421 23.4502 31.2485C23.1445 29.6549 23.4306 28.0045 24.2548 26.6068L19.9981 22.3501ZM9.99811 33.3285C10.8822 33.3285 11.73 32.9773 12.3551 32.3521C12.9803 31.727 13.3314 30.8792 13.3314 29.9951C13.3314 29.1111 12.9803 28.2632 12.3551 27.6381C11.73 27.013 10.8822 26.6618 9.99811 26.6618C9.11405 26.6618 8.2662 27.013 7.64108 27.6381C7.01596 28.2632 6.66477 29.1111 6.66477 29.9951C6.66477 30.8792 7.01596 31.727 7.64108 32.3521C8.2662 32.9773 9.11405 33.3285 9.99811 33.3285ZM29.9981 33.3285C30.8822 33.3285 31.73 32.9773 32.3551 32.3521C32.9802 31.727 33.3314 30.8792 33.3314 29.9951C33.3314 29.1111 32.9802 28.2632 32.3551 27.6381C31.73 27.013 30.8822 26.6618 29.9981 26.6618C29.1141 26.6618 28.2662 27.013 27.6411 27.6381C27.016 28.2632 26.6648 29.1111 26.6648 29.9951C26.6648 30.8792 27.016 31.727 27.6411 32.3521C28.2662 32.9773 29.1141 33.3285 29.9981 33.3285Z" fill="#009FE3"/>
</svg>
