<svg width="50" height="50" viewBox="0 0 50 50" fill="none" xmlns="http://www.w3.org/2000/svg">
<circle cx="25" cy="25" r="24.5" stroke="#D0DCEC"/>
<path d="M26.0938 27.0233H25.9438V27.1733V37.35H22.8063V27.1733V27.0233H22.6563H19.2187C18.354 27.0233 17.65 26.3136 17.65 25.4343C17.65 24.555 18.354 23.8452 19.2187 23.8452H22.6563H22.8063V23.6952V20.2171C22.8063 17.417 25.0492 15.15 27.8125 15.15H28.6719C29.5366 15.15 30.2406 15.8598 30.2406 16.7391C30.2406 17.6183 29.5366 18.3281 28.6719 18.3281H27.8125C26.7787 18.3281 25.9438 19.1755 25.9438 20.2171V23.6952V23.8452H26.0938H29.5313C30.396 23.8452 31.1 24.555 31.1 25.4343C31.1 26.3136 30.396 27.0233 29.5313 27.0233H26.0938Z" fill="#009FE3" stroke="#F9F9F9" stroke-width="0.3"/>
</svg>
