<svg width="50" height="50" viewBox="0 0 50 50" fill="none" xmlns="http://www.w3.org/2000/svg">
<circle cx="25" cy="25" r="24.5" stroke="#D0DCEC"/>
<path d="M30.2778 13.7459C33.5784 13.7459 36.2542 16.4217 36.2542 19.7223V29.4445C36.2542 32.7452 33.5784 35.4209 30.2778 35.4209H20.5556C17.2549 35.4209 14.5792 32.7452 14.5792 29.4445V19.7223C14.5792 16.4217 17.2549 13.7459 20.5556 13.7459H30.2778ZM30.2778 15.9765H20.5556C18.4868 15.9765 16.8097 17.6536 16.8097 19.7223V29.4445C16.8097 31.5134 18.4868 33.1904 20.5556 33.1904H30.2778C32.3466 33.1904 34.0236 31.5134 34.0236 29.4445V19.7223C34.0236 17.6536 32.3466 15.9765 30.2778 15.9765ZM25.4167 19.8223C28.0461 19.8223 30.1778 21.9539 30.1778 24.5834C30.1778 27.2129 28.0461 29.3445 25.4167 29.3445C22.7872 29.3445 20.6556 27.2129 20.6556 24.5834C20.6556 21.9539 22.7872 19.8223 25.4167 19.8223ZM25.4167 22.0529C24.0191 22.0529 22.8861 23.1858 22.8861 24.5834C22.8861 25.9811 24.0191 27.114 25.4167 27.114C26.8143 27.114 27.9472 25.9811 27.9472 24.5834C27.9472 23.1858 26.8143 22.0529 25.4167 22.0529ZM30.8854 17.9994C31.5014 17.9994 32.0007 18.4987 32.0007 19.1147C32.0007 19.7306 31.5014 20.23 30.8854 20.23C30.2695 20.23 29.7702 19.7306 29.7702 19.1147C29.7702 18.4987 30.2695 17.9994 30.8854 17.9994Z" fill="#009FE3" stroke="#F9F9F9" stroke-width="0.2"/>
</svg>
