<svg width="50" height="50" viewBox="0 0 50 50" fill="none" xmlns="http://www.w3.org/2000/svg">
<circle cx="25" cy="25" r="24.5" stroke="#D0DCEC"/>
<path d="M32.4803 15.3995L32.4415 15.3074L32.4803 15.3995C33.711 14.8813 35.0303 15.922 34.813 17.2396L32.0951 33.7189C31.8437 35.2425 30.1716 36.1139 28.7765 35.3562C27.5576 34.6941 25.7505 33.6758 24.1227 32.6122C23.3098 32.081 22.5241 31.5273 21.8728 30.9915L21.8728 30.9915C21.447 30.6415 21.0312 30.2615 20.7022 29.8679L20.676 29.8366L20.6354 29.8326C19.4246 29.7125 17.9076 29.2872 16.5088 28.8261C14.8057 28.2645 13.1068 27.5898 11.9961 27.1294C10.5806 26.5426 10.6438 24.5938 11.9956 24.0247L11.9568 23.9325L11.9956 24.0247L32.4803 15.3995ZM14.2154 25.4725L13.9886 25.568L14.2177 25.6578C15.1182 26.0109 16.1599 26.3989 17.1964 26.7407L17.1964 26.7407C18.5418 27.1842 19.7739 27.5132 20.6622 27.6268L20.7109 27.633L20.7456 27.5983L25.9424 22.4015L25.8717 22.3308L25.9424 22.4015C26.3712 21.9728 27.0664 21.9728 27.4951 22.4015C27.9239 22.8303 27.9239 23.5255 27.4951 23.9542L22.7501 28.6994L22.6775 28.7719L22.7519 28.8426C22.8948 28.9785 23.0659 29.1298 23.2674 29.2956L23.2674 29.2956C23.8328 29.7605 24.5456 30.2654 25.3238 30.7741L25.3239 30.7741C26.8625 31.7793 28.5895 32.755 29.7866 33.4059L29.9101 33.4731L29.933 33.3344L32.4698 17.9528L32.4993 17.774L32.3323 17.8443L14.2154 25.4725Z" fill="#009FE3" stroke="#F9F9F9" stroke-width="0.2"/>
</svg>
