<svg width="50" height="50" viewBox="0 0 50 50" fill="none" xmlns="http://www.w3.org/2000/svg">
<circle cx="25" cy="25" r="24.5" stroke="#D0DCEC"/>
<path d="M36.5972 19.3229C36.2847 18.2292 35.5035 17.4479 34.4097 17.1354C32.5347 16.6667 24.566 16.6667 24.566 16.6667C24.566 16.6667 16.7535 16.6667 14.7222 17.1354C13.6285 17.4479 12.8472 18.2292 12.5347 19.3229C12.2222 21.3542 12.2222 25.4167 12.2222 25.4167C12.2222 25.4167 12.2222 29.4792 12.691 31.5104C13.0035 32.6042 13.7847 33.3854 14.8785 33.6979C16.7535 34.1667 24.7222 34.1667 24.7222 34.1667C24.7222 34.1667 32.5347 34.1667 34.566 33.6979C35.6597 33.3854 36.441 32.6042 36.7535 31.5104C37.2222 29.4792 37.2222 25.4167 37.2222 25.4167C37.2222 25.4167 37.2222 21.3542 36.5972 19.3229ZM22.2222 29.1667V21.6667L28.7847 25.4167L22.2222 29.1667Z" fill="#009FE3"/>
</svg>
