<svg width="26" height="26" viewBox="0 0 26 26" fill="none" xmlns="http://www.w3.org/2000/svg">
<path d="M13 0.75C10.5772 0.75 8.20877 1.46845 6.19427 2.8145C4.17977 4.16054 2.60965 6.07373 1.68248 8.31213C0.755308 10.5505 0.512717 13.0136 0.985386 15.3899C1.45805 17.7661 2.62475 19.9489 4.33795 21.6621C6.05114 23.3752 8.23388 24.542 10.6101 25.0146C12.9864 25.4873 15.4495 25.2447 17.6879 24.3175C19.9263 23.3904 21.8395 21.8202 23.1855 19.8057C24.5316 17.7912 25.25 15.4228 25.25 13C25.25 9.7511 23.9594 6.63526 21.6621 4.33794C19.3647 2.04062 16.2489 0.75 13 0.75ZM11.25 17.8913L6.87501 13.5163L8.26626 12.125L11.25 15.1087L17.7338 8.625L19.1303 10.0128L11.25 17.8913Z" fill="#009FE3"/>
</svg>
