<svg width="321" height="257" viewBox="0 0 321 257" fill="none" xmlns="http://www.w3.org/2000/svg">
<g clip-path="url(#clip0_2525_24154)">
<g filter="url(#filter0_f_2525_24154)">
<path d="M264.232 164.187C260.968 152.007 268.196 139.487 280.376 136.223C292.556 132.96 305.076 140.188 308.339 152.368L311.716 164.97C314.98 177.15 307.752 189.67 295.572 192.934C283.392 196.197 270.872 188.969 267.608 176.789L264.232 164.187Z" fill="#FFFFE7"/>
</g>
<path d="M270.794 155.421C271.796 142.679 282.945 133.062 295.697 133.941C308.448 134.82 317.973 145.862 316.971 158.605L315.559 176.558C315.277 180.15 312.134 182.86 308.54 182.613L275.378 180.327C271.784 180.079 269.099 176.966 269.382 173.375L270.794 155.421Z" fill="url(#paint0_linear_2525_24154)"/>
<g filter="url(#filter1_f_2525_24154)">
<path d="M247.196 173.162C246.952 158.542 258.604 146.393 273.221 146.025C287.838 145.657 299.884 157.21 300.128 171.83L300.547 197.019C300.791 211.638 289.139 223.788 274.522 224.156C259.905 224.523 247.859 212.97 247.615 198.351L247.196 173.162Z" fill="url(#paint1_linear_2525_24154)"/>
</g>
<g style="mix-blend-mode:luminosity">
<path d="M250.73 167.345C253.849 153.1 267.961 143.91 282.251 146.817C296.54 149.724 305.596 163.629 302.477 177.873L297.013 202.833C293.894 217.077 279.782 226.268 265.492 223.361C251.203 220.454 242.147 206.549 245.266 192.304L250.73 167.345Z" fill="url(#paint2_linear_2525_24154)"/>
</g>
<g filter="url(#filter2_f_2525_24154)">
<path d="M274.261 151.489C277.122 147.368 282.782 146.345 286.903 149.206L299.029 157.62C303.146 160.478 304.168 166.133 301.31 170.25C299.065 173.486 294.989 174.904 291.221 173.761L280.932 170.641L274.491 162.164C272.111 159.031 272.018 154.722 274.261 151.489Z" fill="white"/>
</g>
<path d="M198.155 0.344238L262.071 64.2602C267.398 69.5862 264.961 78.6812 257.685 80.6312L186.745 99.6392C179.469 101.588 172.811 94.9312 174.76 87.6552L198.155 0.344238Z" fill="#2329D6"/>
<g filter="url(#filter3_f_2525_24154)">
<path d="M136.031 154.344C136.247 148.726 141.983 119.622 146.501 97.4068C149.359 83.3558 163.798 74.9718 177.451 79.3548C191.165 83.7578 198.009 99.0918 191.986 112.175C183.09 131.501 171.517 156.02 167.694 161.303C161.188 170.293 151.88 176.984 145.965 175.894C140.049 174.804 135.672 163.658 136.031 154.344Z" fill="#FFE4DB"/>
</g>
<g filter="url(#filter4_f_2525_24154)">
<path d="M140.672 111.138C136.534 103.081 139.711 93.1942 147.768 89.0562C155.826 84.9182 165.712 88.0952 169.85 96.1532L186.738 129.036C190.876 137.094 187.699 146.98 179.642 151.118C171.584 155.256 161.698 152.079 157.56 144.022L140.672 111.138Z" fill="#C5EDFE"/>
</g>
<g filter="url(#filter5_f_2525_24154)">
<path d="M154.754 105.333C153.412 101.451 155.47 97.2171 159.352 95.8751C163.233 94.5331 167.467 96.5912 168.809 100.473L177.192 124.715C178.534 128.596 176.475 132.831 172.594 134.173C168.712 135.515 164.478 133.456 163.136 129.575L154.754 105.333Z" fill="#D4FFFF"/>
</g>
<path d="M125.889 133.79L94.1895 142.284L102.683 173.984L134.383 165.49L125.889 133.79Z" fill="#F84031"/>
<path d="M206.749 158.437C203.252 145.387 210.997 131.973 224.047 128.477C237.097 124.98 250.511 132.724 254.007 145.774L262.027 175.705C262.96 179.185 260.894 182.762 257.414 183.694L222.758 192.98C219.278 193.913 215.701 191.848 214.769 188.368L206.749 158.437Z" fill="#A9CFFF"/>
<g filter="url(#filter6_iiii_2525_24154)">
<path d="M39.6295 146.823C34.0345 125.943 46.4265 104.481 67.3065 98.8862L196.48 64.2742C217.36 58.6792 238.822 71.0701 244.417 91.9501L265.522 170.715C267.387 177.675 263.256 184.829 256.296 186.694L76.7135 234.812C69.7535 236.677 62.5995 232.547 60.7345 225.587L39.6295 146.823Z" fill="white" fill-opacity="0.2"/>
</g>
<path d="M95.0754 154.12L79.8444 158.201L55.0914 126.743L43.3104 184.315L19.9164 157.934L13.8444 175.885L3.69043 178.606" stroke="#2329D6" stroke-width="5.87106" stroke-linecap="round" stroke-linejoin="round"/>
<path d="M179.3 101.11C192.986 99.2965 202.611 86.7313 200.798 73.0447C198.985 59.3582 186.419 49.733 172.733 51.5463C159.046 53.3596 149.421 65.9248 151.234 79.6113C153.048 93.2979 165.613 102.923 179.3 101.11Z" stroke="#050121" stroke-width="13.0468" stroke-dasharray="8.52 8.52"/>
<path d="M100.641 147.359L91.1387 149.905L93.6849 159.407L103.188 156.861L100.641 147.359Z" fill="#F84031"/>
<path d="M147.646 148.948L128.742 154.013L135.496 179.218L154.399 174.153L147.646 148.948Z" stroke="white" stroke-width="6.5234" stroke-dasharray="13.05 13.05"/>
<path d="M147.646 148.948L128.742 154.013L135.496 179.218L154.399 174.153L147.646 148.948Z" stroke="url(#paint3_linear_2525_24154)" stroke-width="6.5234" stroke-dasharray="13.05 13.05"/>
<path d="M68.9991 224.05L50.0957 229.115L56.005 251.169L74.9084 246.104L68.9991 224.05Z" stroke="#050121" stroke-width="6.5234" stroke-dasharray="13.05 13.05"/>
</g>
<defs>
<filter id="filter0_f_2525_24154" x="237.355" y="109.346" width="101.239" height="110.465" filterUnits="userSpaceOnUse" color-interpolation-filters="sRGB">
<feFlood flood-opacity="0" result="BackgroundImageFix"/>
<feBlend mode="normal" in="SourceGraphic" in2="BackgroundImageFix" result="shape"/>
<feGaussianBlur stdDeviation="13.0468" result="effect1_foregroundBlur_2525_24154"/>
</filter>
<filter id="filter1_f_2525_24154" x="227.622" y="126.446" width="92.4988" height="117.288" filterUnits="userSpaceOnUse" color-interpolation-filters="sRGB">
<feFlood flood-opacity="0" result="BackgroundImageFix"/>
<feBlend mode="normal" in="SourceGraphic" in2="BackgroundImageFix" result="shape"/>
<feGaussianBlur stdDeviation="9.78511" result="effect1_foregroundBlur_2525_24154"/>
</filter>
<filter id="filter2_f_2525_24154" x="269.379" y="144.322" width="36.8134" height="33.0918" filterUnits="userSpaceOnUse" color-interpolation-filters="sRGB">
<feFlood flood-opacity="0" result="BackgroundImageFix"/>
<feBlend mode="normal" in="SourceGraphic" in2="BackgroundImageFix" result="shape"/>
<feGaussianBlur stdDeviation="1.63085" result="effect1_foregroundBlur_2525_24154"/>
</filter>
<filter id="filter3_f_2525_24154" x="128.255" y="70.4317" width="73.6853" height="113.334" filterUnits="userSpaceOnUse" color-interpolation-filters="sRGB">
<feFlood flood-opacity="0" result="BackgroundImageFix"/>
<feBlend mode="normal" in="SourceGraphic" in2="BackgroundImageFix" result="shape"/>
<feGaussianBlur stdDeviation="3.87788" result="effect1_foregroundBlur_2525_24154"/>
</filter>
<filter id="filter4_f_2525_24154" x="125.931" y="74.315" width="75.5488" height="91.5444" filterUnits="userSpaceOnUse" color-interpolation-filters="sRGB">
<feFlood flood-opacity="0" result="BackgroundImageFix"/>
<feBlend mode="normal" in="SourceGraphic" in2="BackgroundImageFix" result="shape"/>
<feGaussianBlur stdDeviation="6.46313" result="effect1_foregroundBlur_2525_24154"/>
</filter>
<filter id="filter5_f_2525_24154" x="149.173" y="90.2943" width="33.5998" height="49.4597" filterUnits="userSpaceOnUse" color-interpolation-filters="sRGB">
<feFlood flood-opacity="0" result="BackgroundImageFix"/>
<feBlend mode="normal" in="SourceGraphic" in2="BackgroundImageFix" result="shape"/>
<feGaussianBlur stdDeviation="2.58525" result="effect1_foregroundBlur_2525_24154"/>
</filter>
<filter id="filter6_iiii_2525_24154" x="38.2861" y="59.669" width="230.945" height="178.853" filterUnits="userSpaceOnUse" color-interpolation-filters="sRGB">
<feFlood flood-opacity="0" result="BackgroundImageFix"/>
<feBlend mode="normal" in="SourceGraphic" in2="BackgroundImageFix" result="shape"/>
<feColorMatrix in="SourceAlpha" type="matrix" values="0 0 0 0 0 0 0 0 0 0 0 0 0 0 0 0 0 0 127 0" result="hardAlpha"/>
<feOffset dy="3.2617"/>
<feGaussianBlur stdDeviation="6.5234"/>
<feComposite in2="hardAlpha" operator="arithmetic" k2="-1" k3="1"/>
<feColorMatrix type="matrix" values="0 0 0 0 1 0 0 0 0 1 0 0 0 0 1 0 0 0 0.3 0"/>
<feBlend mode="normal" in2="shape" result="effect1_innerShadow_2525_24154"/>
<feColorMatrix in="SourceAlpha" type="matrix" values="0 0 0 0 0 0 0 0 0 0 0 0 0 0 0 0 0 0 127 0" result="hardAlpha"/>
<feOffset dy="-3.2617"/>
<feGaussianBlur stdDeviation="6.5234"/>
<feComposite in2="hardAlpha" operator="arithmetic" k2="-1" k3="1"/>
<feColorMatrix type="matrix" values="0 0 0 0 1 0 0 0 0 1 0 0 0 0 1 0 0 0 0.5 0"/>
<feBlend mode="normal" in2="effect1_innerShadow_2525_24154" result="effect2_innerShadow_2525_24154"/>
<feColorMatrix in="SourceAlpha" type="matrix" values="0 0 0 0 0 0 0 0 0 0 0 0 0 0 0 0 0 0 127 0" result="hardAlpha"/>
<feOffset dy="3.2617"/>
<feGaussianBlur stdDeviation="71.7574"/>
<feComposite in2="hardAlpha" operator="arithmetic" k2="-1" k3="1"/>
<feColorMatrix type="matrix" values="0 0 0 0 1 0 0 0 0 1 0 0 0 0 1 0 0 0 0.45 0"/>
<feBlend mode="normal" in2="effect2_innerShadow_2525_24154" result="effect3_innerShadow_2525_24154"/>
<feColorMatrix in="SourceAlpha" type="matrix" values="0 0 0 0 0 0 0 0 0 0 0 0 0 0 0 0 0 0 127 0" result="hardAlpha"/>
<feOffset dx="3.2617" dy="3.2617"/>
<feGaussianBlur stdDeviation="3.2617"/>
<feComposite in2="hardAlpha" operator="arithmetic" k2="-1" k3="1"/>
<feColorMatrix type="matrix" values="0 0 0 0 1 0 0 0 0 1 0 0 0 0 1 0 0 0 1 0"/>
<feBlend mode="normal" in2="effect3_innerShadow_2525_24154" result="effect4_innerShadow_2525_24154"/>
</filter>
<linearGradient id="paint0_linear_2525_24154" x1="312.709" y1="135.114" x2="247.542" y2="202.1" gradientUnits="userSpaceOnUse">
<stop offset="0.0941878" stop-color="#FFE5DC"/>
<stop offset="0.230705" stop-color="#FFFFE7" stop-opacity="0"/>
</linearGradient>
<linearGradient id="paint1_linear_2525_24154" x1="299.985" y1="163.264" x2="235.519" y2="169.389" gradientUnits="userSpaceOnUse">
<stop stop-color="#FFFFE6"/>
<stop offset="0.360807" stop-color="#D5FFFF"/>
<stop offset="0.977083" stop-color="#D5FFFF" stop-opacity="0"/>
</linearGradient>
<linearGradient id="paint2_linear_2525_24154" x1="304.965" y1="172.542" x2="254.335" y2="225.035" gradientUnits="userSpaceOnUse">
<stop offset="0.0153056" stop-color="#D4FFE7"/>
<stop offset="0.312156" stop-color="#D5FFFF" stop-opacity="0"/>
</linearGradient>
<linearGradient id="paint3_linear_2525_24154" x1="136.889" y1="149.443" x2="145.331" y2="180.949" gradientUnits="userSpaceOnUse">
<stop offset="0.60706" stop-color="#FFE2D9"/>
<stop offset="1" stop-color="#E4EBFF"/>
</linearGradient>
<clipPath id="clip0_2525_24154">
<rect width="321" height="257" fill="white"/>
</clipPath>
</defs>
</svg>
