<svg width="284" height="230" viewBox="0 0 284 230" fill="none" xmlns="http://www.w3.org/2000/svg">
<g clip-path="url(#clip0_2525_24111)">
<g filter="url(#filter0_f_2525_24111)">
<path d="M73.913 181.998C77.043 177.271 95.209 158.033 111.074 141.523C124.189 127.875 143.822 130.285 152.75 146.498C161.726 162.8 155.756 185.563 139.97 194.487C122.337 204.454 102.358 215.35 96.688 216.869C85.93 219.752 74.138 217.926 69.761 211.614C65.383 205.301 68.176 190.661 73.913 181.998Z" fill="#FFE4DB"/>
</g>
<g filter="url(#filter1_f_2525_24111)">
<path d="M103.379 141.329C104.393 131.609 112.707 126.303 121.949 129.479C131.192 132.655 137.863 143.109 136.85 152.83L131.326 205.824C130.313 215.544 121.999 220.85 112.757 217.674C103.514 214.498 96.8426 204.044 97.8556 194.323L103.379 141.329Z" fill="#C5EDFE"/>
</g>
<g filter="url(#filter2_f_2525_24111)">
<path d="M118.557 150.584C119.583 146.091 123.716 144.198 127.788 146.355C131.861 148.513 134.33 153.905 133.305 158.398L125.9 190.836C124.874 195.329 120.741 197.222 116.669 195.064C112.597 192.906 110.127 187.515 111.152 183.022L118.557 150.584Z" fill="#D4FFFF"/>
</g>
<path fill-rule="evenodd" clip-rule="evenodd" d="M63.7188 124.473L34.3028 153.152C31.9328 155.362 28.2498 155.234 25.9808 152.863C25.3098 152.12 24.8158 151.229 24.5398 150.261L1.50177 64.2819C-2.89223 47.8839 6.30077 38.3909 22.0598 34.1689L59.0778 24.2489C74.3558 20.1559 87.4268 23.2149 91.6448 38.9569L114.976 126.029C115.392 127.58 115.188 129.229 114.41 130.613C113.632 131.997 112.344 133.003 110.828 133.409C109.857 133.652 108.841 133.664 107.86 133.443L67.8318 123.371C66.3578 123.005 64.8118 123.42 63.7188 124.473Z" fill="#2329D6"/>
<g filter="url(#filter3_d_2525_24111)">
<path d="M67.4867 63.005L27.1977 73.8C24.8757 74.422 22.3677 72.591 21.5957 69.709C20.8237 66.828 22.0797 63.987 24.4017 63.365L64.6907 52.57C67.0127 51.948 69.5207 53.779 70.2927 56.661C71.0647 59.543 69.8087 62.383 67.4867 63.005Z" fill="white"/>
<path d="M67.3006 62.3091L27.0116 73.1051C25.2066 73.5881 23.0006 72.1681 22.2916 69.5231C21.5826 66.8781 22.7836 64.5451 24.5876 64.0611L64.8766 53.2661C66.6816 52.7821 68.8876 54.2021 69.5966 56.8471C70.3056 59.4931 69.1046 61.8261 67.3006 62.3091Z" stroke="url(#paint0_linear_2525_24111)" stroke-width="1.44041"/>
</g>
<path d="M237.288 129.35L202.291 138.727L211.669 173.724L246.666 164.347L237.288 129.35Z" fill="#F84031"/>
<g filter="url(#filter4_f_2525_24111)">
<path d="M244.354 165.722C229.342 179.371 206.514 177.907 193.368 162.452L154.281 116.501C141.135 101.046 142.648 77.4518 157.661 63.8018C172.673 50.1528 195.501 51.6168 208.647 67.0718L247.734 113.023C260.88 128.478 259.367 152.072 244.354 165.722Z" fill="#FFE4DB"/>
</g>
<g filter="url(#filter5_f_2525_24111)">
<path d="M252.801 146.77C246.584 152.422 237.132 151.816 231.689 145.416L164.707 66.671C159.264 60.272 159.89 50.502 166.107 44.851C172.323 39.199 181.775 39.805 187.219 46.204L254.2 124.949C259.643 131.349 259.017 141.118 252.801 146.77Z" fill="#FFFFE7"/>
</g>
<g filter="url(#filter6_iiii_2525_24111)">
<path d="M262.108 108.163C253.54 110.459 244.856 105.931 242.75 98.0709C240.642 90.2019 245.899 81.9389 254.466 79.6429C256.542 79.0869 258.333 77.7959 259.434 76.0649C260.544 74.3199 260.878 72.2708 260.368 70.3658L253.426 44.4999C247.567 22.6339 223.402 10.0438 199.569 16.4298L77.3536 49.1769C53.5206 55.5639 38.8886 78.5488 44.7476 100.416L51.8916 127.12C52.4016 129.025 53.7166 130.632 55.5496 131.588C57.3696 132.537 59.5646 132.759 61.6416 132.203C70.5006 129.829 78.7256 133.813 80.7786 141.471C82.8846 149.332 77.6276 157.595 69.0606 159.89C64.7406 161.048 62.0956 165.204 63.1576 169.167L70.0846 195.016C75.9436 216.883 100.101 229.485 123.945 223.096L246.18 190.344C270.024 183.955 284.643 160.962 278.784 139.096L271.858 113.247C270.796 109.283 266.428 107.006 262.108 108.163Z" fill="white" fill-opacity="0.2"/>
</g>
<g filter="url(#filter7_f_2525_24111)">
<path d="M115.065 146.306C111.462 132.859 119.442 119.037 132.889 115.433C146.336 111.83 160.158 119.81 163.762 133.258L167.49 147.171C171.093 160.618 163.113 174.44 149.666 178.043C136.218 181.646 122.396 173.666 118.793 160.219L115.065 146.306Z" fill="#FFFFE7"/>
</g>
<path d="M122.31 136.629C123.416 122.561 135.726 111.943 149.804 112.914C163.882 113.884 174.398 126.075 173.291 140.143L171.733 159.964C171.421 163.93 167.951 166.922 163.983 166.649L127.372 164.125C123.404 163.851 120.44 160.415 120.751 156.45L122.31 136.629Z" fill="url(#paint1_linear_2525_24111)"/>
<g filter="url(#filter8_f_2525_24111)">
<path d="M96.2571 156.214C95.9881 140.074 108.852 126.661 124.99 126.255C141.127 125.849 154.427 138.604 154.696 154.744L155.159 182.554C155.428 198.694 142.564 212.107 126.426 212.513C110.289 212.919 96.9891 200.164 96.7201 184.024L96.2571 156.214Z" fill="url(#paint2_linear_2525_24111)"/>
</g>
<g style="mix-blend-mode:luminosity">
<path d="M100.16 149.793C103.603 134.066 119.183 123.919 134.959 127.129C150.735 130.339 160.733 145.69 157.29 161.417L151.257 188.972C147.813 204.699 132.233 214.846 116.457 211.636C100.681 208.427 90.6831 193.076 94.1271 177.349L100.16 149.793Z" fill="url(#paint3_linear_2525_24111)"/>
</g>
<g filter="url(#filter9_f_2525_24111)">
<path d="M126.139 132.288C129.296 127.737 135.545 126.608 140.096 129.766L153.482 139.056C158.029 142.211 159.156 148.454 156.001 153C153.523 156.572 149.023 158.138 144.862 156.876L133.503 153.432L126.392 144.073C123.764 140.614 123.662 135.856 126.139 132.288Z" fill="white"/>
</g>
<g filter="url(#filter10_f_2525_24111)">
<path d="M193.19 119.533L185.682 131.901L191.732 144.92C192.776 147.174 192.433 149.765 190.829 151.692C189.247 153.632 186.734 154.494 184.273 153.945L170.088 150.845L159.329 160.638C158.532 161.365 157.589 161.889 156.588 162.157C155.277 162.508 153.876 162.451 152.551 161.958C150.204 161.08 148.612 159.008 148.389 156.533L147.11 142.236L134.424 135.28C132.231 134.082 130.966 131.795 131.109 129.313C131.262 126.836 132.799 124.692 135.115 123.711L148.506 117.985L151.418 103.882C151.933 101.453 153.752 99.5398 156.167 98.8928L156.184 98.8878C158.61 98.2468 161.142 98.9938 162.785 100.845L172.357 111.594L186.844 109.859C189.313 109.55 191.715 110.638 193.078 112.708C194.451 114.785 194.5 117.397 193.19 119.533Z" fill="#A9CFFF"/>
</g>
<g filter="url(#filter11_iiii_2525_24111)">
<path d="M191.326 112.577L183.818 124.944L189.867 137.963C190.912 140.218 190.569 142.808 188.965 144.736C187.383 146.675 184.87 147.538 182.409 146.988L168.223 143.889L157.465 153.681C156.668 154.409 155.725 154.932 154.723 155.201C153.413 155.552 152.012 155.494 150.686 155.001C148.34 154.124 146.748 152.052 146.525 149.577L145.246 135.279L132.56 128.323C130.366 127.125 129.102 124.839 129.245 122.356C129.398 119.88 130.935 117.736 133.251 116.754L146.642 111.029L149.554 96.9252C150.069 94.4962 151.888 92.5832 154.303 91.9362L154.32 91.9322C156.746 91.2912 159.277 92.0382 160.921 93.8882L170.492 104.638L184.98 102.903C187.449 102.593 189.851 103.681 191.214 105.752C192.587 107.828 192.635 110.44 191.326 112.577Z" fill="white" fill-opacity="0.2"/>
</g>
<path d="M185.456 74.4798C186.189 73.9608 186.517 73.0128 186.275 72.1128C186.032 71.2128 185.273 70.5568 184.378 70.4758L148.406 67.2058C147.924 67.1618 147.445 67.2898 147.05 67.5688L117.532 88.3878C116.798 88.9048 116.468 89.8528 116.708 90.7528C116.948 91.6528 117.706 92.3108 118.601 92.3938L132.86 93.7258L136.574 107.586C137.187 109.873 139.994 111.194 144.918 111.512C149.21 111.789 154.255 111.224 159.124 109.919C163.993 108.614 168.645 106.582 172.224 104.196C176.329 101.459 178.1 98.9107 177.487 96.6227L173.773 82.7638L178.597 79.3438L183.743 98.5488C181.596 100.065 180.52 102.893 181.265 105.673C182.01 108.453 184.356 110.364 186.973 110.604L189.147 118.718C189.462 119.891 190.629 120.598 191.755 120.296C192.88 119.995 193.538 118.799 193.223 117.626L191.049 109.511C193.196 107.995 194.272 105.167 193.527 102.387C192.782 99.6068 190.436 97.6958 187.819 97.4568L182.268 76.7408L185.456 74.4798ZM187.97 106.172C186.837 106.476 185.657 105.762 185.341 104.581C185.024 103.399 185.689 102.191 186.822 101.888C187.955 101.584 189.134 102.298 189.451 103.479C189.767 104.661 189.103 105.869 187.97 106.172ZM148.868 71.6438L178.134 74.3048L154.14 91.3158L124.854 88.5808L148.868 71.6438ZM173.325 97.3947C173.044 97.9097 171.909 99.2678 169.004 101.053C165.906 102.956 161.992 104.596 157.985 105.67C153.979 106.743 149.77 107.28 146.134 107.181C142.727 107.088 141.065 106.479 140.564 106.173L137.341 94.1447L154.597 95.7558C154.84 95.7788 155.082 95.7578 155.313 95.6958C155.544 95.6338 155.764 95.5308 155.963 95.3898L170.101 85.3668L173.324 97.3947H173.325Z" fill="#2329D6"/>
<path d="M209.413 144.329L198.922 147.14L201.733 157.631L212.224 154.82L209.413 144.329Z" fill="#F84031"/>
<path d="M261.307 146.084L240.438 151.676L247.894 179.502L268.764 173.91L261.307 146.084Z" stroke="white" stroke-width="7.20205" stroke-dasharray="14.4 14.4"/>
<path d="M261.307 146.084L240.438 151.676L247.894 179.502L268.764 173.91L261.307 146.084Z" stroke="url(#paint4_linear_2525_24111)" stroke-width="7.20205" stroke-dasharray="14.4 14.4"/>
<mask id="mask0_2525_24111" style="mask-type:alpha" maskUnits="userSpaceOnUse" x="63" y="150" width="116" height="76">
<path d="M72.3245 203.376L63.9365 172.071L162.424 150.058L178.106 208.584L115.175 225.447C89.1585 224.248 75.7675 210.233 72.3245 203.376Z" fill="#2329D6"/>
</mask>
<g mask="url(#mask0_2525_24111)">
<path d="M114.074 296.575C143.85 288.596 161.52 257.99 153.542 228.214C145.563 198.439 114.957 180.768 85.1816 188.747C55.4057 196.725 37.7354 227.331 45.7138 257.107C53.6922 286.883 84.2981 304.553 114.074 296.575Z" stroke="white" stroke-width="6.3018" stroke-linecap="round" stroke-linejoin="round" stroke-dasharray="12.6 12.6"/>
<path d="M116.062 310.955C154.482 300.66 177.283 261.168 166.988 222.748C156.693 184.327 117.202 161.527 78.7813 171.822C40.3608 182.116 17.5604 221.608 27.8551 260.028C38.1499 298.449 77.6414 321.249 116.062 310.955Z" stroke="#050121" stroke-width="6.3018" stroke-linecap="round" stroke-linejoin="round" stroke-dasharray="12.6 12.6"/>
</g>
<path d="M250.7 6.45673L229.83 12.0488L236.354 36.3971L257.224 30.805L250.7 6.45673Z" stroke="#050121" stroke-width="7.20205" stroke-dasharray="14.4 14.4"/>
</g>
<defs>
<filter id="filter0_f_2525_24111" x="56.8131" y="121.839" width="110.934" height="107.163" filterUnits="userSpaceOnUse" color-interpolation-filters="sRGB">
<feFlood flood-opacity="0" result="BackgroundImageFix"/>
<feBlend mode="normal" in="SourceGraphic" in2="BackgroundImageFix" result="shape"/>
<feGaussianBlur stdDeviation="5.40154" result="effect1_foregroundBlur_2525_24111"/>
</filter>
<filter id="filter1_f_2525_24111" x="79.7488" y="110.553" width="75.2075" height="126.046" filterUnits="userSpaceOnUse" color-interpolation-filters="sRGB">
<feFlood flood-opacity="0" result="BackgroundImageFix"/>
<feBlend mode="normal" in="SourceGraphic" in2="BackgroundImageFix" result="shape"/>
<feGaussianBlur stdDeviation="9.00256" result="effect1_foregroundBlur_2525_24111"/>
</filter>
<filter id="filter2_f_2525_24111" x="103.718" y="138.262" width="37.0203" height="64.8958" filterUnits="userSpaceOnUse" color-interpolation-filters="sRGB">
<feFlood flood-opacity="0" result="BackgroundImageFix"/>
<feBlend mode="normal" in="SourceGraphic" in2="BackgroundImageFix" result="shape"/>
<feGaussianBlur stdDeviation="3.60103" result="effect1_foregroundBlur_2525_24111"/>
</filter>
<filter id="filter3_d_2525_24111" x="3.36306" y="34.4436" width="121.173" height="93.4935" filterUnits="userSpaceOnUse" color-interpolation-filters="sRGB">
<feFlood flood-opacity="0" result="BackgroundImageFix"/>
<feColorMatrix in="SourceAlpha" type="matrix" values="0 0 0 0 0 0 0 0 0 0 0 0 0 0 0 0 0 0 127 0" result="hardAlpha"/>
<feOffset dx="18.0051" dy="18.0051"/>
<feGaussianBlur stdDeviation="18.0051"/>
<feColorMatrix type="matrix" values="0 0 0 0 1 0 0 0 0 0.521569 0 0 0 0 0.133333 0 0 0 0.5 0"/>
<feBlend mode="normal" in2="BackgroundImageFix" result="effect1_dropShadow_2525_24111"/>
<feBlend mode="normal" in="SourceGraphic" in2="effect1_dropShadow_2525_24111" result="shape"/>
</filter>
<filter id="filter4_f_2525_24111" x="109.322" y="18.4405" width="183.372" height="192.642" filterUnits="userSpaceOnUse" color-interpolation-filters="sRGB">
<feFlood flood-opacity="0" result="BackgroundImageFix"/>
<feBlend mode="normal" in="SourceGraphic" in2="BackgroundImageFix" result="shape"/>
<feGaussianBlur stdDeviation="18.0051" result="effect1_foregroundBlur_2525_24111"/>
</filter>
<filter id="filter5_f_2525_24111" x="124.992" y="4.96832" width="168.925" height="181.684" filterUnits="userSpaceOnUse" color-interpolation-filters="sRGB">
<feFlood flood-opacity="0" result="BackgroundImageFix"/>
<feBlend mode="normal" in="SourceGraphic" in2="BackgroundImageFix" result="shape"/>
<feGaussianBlur stdDeviation="18.0051" result="effect1_foregroundBlur_2525_24111"/>
</filter>
<filter id="filter6_iiii_2525_24111" x="43.4561" y="11.1675" width="240.221" height="217.191" filterUnits="userSpaceOnUse" color-interpolation-filters="sRGB">
<feFlood flood-opacity="0" result="BackgroundImageFix"/>
<feBlend mode="normal" in="SourceGraphic" in2="BackgroundImageFix" result="shape"/>
<feColorMatrix in="SourceAlpha" type="matrix" values="0 0 0 0 0 0 0 0 0 0 0 0 0 0 0 0 0 0 127 0" result="hardAlpha"/>
<feOffset dy="3.60103"/>
<feGaussianBlur stdDeviation="7.20205"/>
<feComposite in2="hardAlpha" operator="arithmetic" k2="-1" k3="1"/>
<feColorMatrix type="matrix" values="0 0 0 0 1 0 0 0 0 1 0 0 0 0 1 0 0 0 0.3 0"/>
<feBlend mode="normal" in2="shape" result="effect1_innerShadow_2525_24111"/>
<feColorMatrix in="SourceAlpha" type="matrix" values="0 0 0 0 0 0 0 0 0 0 0 0 0 0 0 0 0 0 127 0" result="hardAlpha"/>
<feOffset dy="-3.60103"/>
<feGaussianBlur stdDeviation="7.20205"/>
<feComposite in2="hardAlpha" operator="arithmetic" k2="-1" k3="1"/>
<feColorMatrix type="matrix" values="0 0 0 0 1 0 0 0 0 1 0 0 0 0 1 0 0 0 0.5 0"/>
<feBlend mode="normal" in2="effect1_innerShadow_2525_24111" result="effect2_innerShadow_2525_24111"/>
<feColorMatrix in="SourceAlpha" type="matrix" values="0 0 0 0 0 0 0 0 0 0 0 0 0 0 0 0 0 0 127 0" result="hardAlpha"/>
<feOffset dy="3.60103"/>
<feGaussianBlur stdDeviation="79.2226"/>
<feComposite in2="hardAlpha" operator="arithmetic" k2="-1" k3="1"/>
<feColorMatrix type="matrix" values="0 0 0 0 1 0 0 0 0 1 0 0 0 0 1 0 0 0 0.45 0"/>
<feBlend mode="normal" in2="effect2_innerShadow_2525_24111" result="effect3_innerShadow_2525_24111"/>
<feColorMatrix in="SourceAlpha" type="matrix" values="0 0 0 0 0 0 0 0 0 0 0 0 0 0 0 0 0 0 127 0" result="hardAlpha"/>
<feOffset dx="3.60103" dy="3.60103"/>
<feGaussianBlur stdDeviation="3.60103"/>
<feComposite in2="hardAlpha" operator="arithmetic" k2="-1" k3="1"/>
<feColorMatrix type="matrix" values="0 0 0 0 1 0 0 0 0 1 0 0 0 0 1 0 0 0 1 0"/>
<feBlend mode="normal" in2="effect3_innerShadow_2525_24111" result="effect4_innerShadow_2525_24111"/>
</filter>
<filter id="filter7_f_2525_24111" x="85.392" y="85.7597" width="111.772" height="121.957" filterUnits="userSpaceOnUse" color-interpolation-filters="sRGB">
<feFlood flood-opacity="0" result="BackgroundImageFix"/>
<feBlend mode="normal" in="SourceGraphic" in2="BackgroundImageFix" result="shape"/>
<feGaussianBlur stdDeviation="14.4041" result="effect1_foregroundBlur_2525_24111"/>
</filter>
<filter id="filter8_f_2525_24111" x="74.6467" y="104.639" width="102.123" height="129.489" filterUnits="userSpaceOnUse" color-interpolation-filters="sRGB">
<feFlood flood-opacity="0" result="BackgroundImageFix"/>
<feBlend mode="normal" in="SourceGraphic" in2="BackgroundImageFix" result="shape"/>
<feGaussianBlur stdDeviation="10.8031" result="effect1_foregroundBlur_2525_24111"/>
</filter>
<filter id="filter9_f_2525_24111" x="120.748" y="124.375" width="40.6434" height="36.5346" filterUnits="userSpaceOnUse" color-interpolation-filters="sRGB">
<feFlood flood-opacity="0" result="BackgroundImageFix"/>
<feBlend mode="normal" in="SourceGraphic" in2="BackgroundImageFix" result="shape"/>
<feGaussianBlur stdDeviation="1.80051" result="effect1_foregroundBlur_2525_24111"/>
</filter>
<filter id="filter10_f_2525_24111" x="116.694" y="84.258" width="91.8512" height="92.527" filterUnits="userSpaceOnUse" color-interpolation-filters="sRGB">
<feFlood flood-opacity="0" result="BackgroundImageFix"/>
<feBlend mode="normal" in="SourceGraphic" in2="BackgroundImageFix" result="shape"/>
<feGaussianBlur stdDeviation="7.20205" result="effect1_foregroundBlur_2525_24111"/>
</filter>
<filter id="filter11_iiii_2525_24111" x="129.234" y="88.1055" width="66.644" height="70.9208" filterUnits="userSpaceOnUse" color-interpolation-filters="sRGB">
<feFlood flood-opacity="0" result="BackgroundImageFix"/>
<feBlend mode="normal" in="SourceGraphic" in2="BackgroundImageFix" result="shape"/>
<feColorMatrix in="SourceAlpha" type="matrix" values="0 0 0 0 0 0 0 0 0 0 0 0 0 0 0 0 0 0 127 0" result="hardAlpha"/>
<feOffset dy="3.60103"/>
<feGaussianBlur stdDeviation="7.20205"/>
<feComposite in2="hardAlpha" operator="arithmetic" k2="-1" k3="1"/>
<feColorMatrix type="matrix" values="0 0 0 0 1 0 0 0 0 1 0 0 0 0 1 0 0 0 0.3 0"/>
<feBlend mode="normal" in2="shape" result="effect1_innerShadow_2525_24111"/>
<feColorMatrix in="SourceAlpha" type="matrix" values="0 0 0 0 0 0 0 0 0 0 0 0 0 0 0 0 0 0 127 0" result="hardAlpha"/>
<feOffset dy="-3.60103"/>
<feGaussianBlur stdDeviation="7.20205"/>
<feComposite in2="hardAlpha" operator="arithmetic" k2="-1" k3="1"/>
<feColorMatrix type="matrix" values="0 0 0 0 1 0 0 0 0 1 0 0 0 0 1 0 0 0 0.5 0"/>
<feBlend mode="normal" in2="effect1_innerShadow_2525_24111" result="effect2_innerShadow_2525_24111"/>
<feColorMatrix in="SourceAlpha" type="matrix" values="0 0 0 0 0 0 0 0 0 0 0 0 0 0 0 0 0 0 127 0" result="hardAlpha"/>
<feOffset dy="3.60103"/>
<feGaussianBlur stdDeviation="79.2226"/>
<feComposite in2="hardAlpha" operator="arithmetic" k2="-1" k3="1"/>
<feColorMatrix type="matrix" values="0 0 0 0 1 0 0 0 0 1 0 0 0 0 1 0 0 0 0.45 0"/>
<feBlend mode="normal" in2="effect2_innerShadow_2525_24111" result="effect3_innerShadow_2525_24111"/>
<feColorMatrix in="SourceAlpha" type="matrix" values="0 0 0 0 0 0 0 0 0 0 0 0 0 0 0 0 0 0 127 0" result="hardAlpha"/>
<feOffset dx="3.60103" dy="3.60103"/>
<feGaussianBlur stdDeviation="3.60103"/>
<feComposite in2="hardAlpha" operator="arithmetic" k2="-1" k3="1"/>
<feColorMatrix type="matrix" values="0 0 0 0 1 0 0 0 0 1 0 0 0 0 1 0 0 0 1 0"/>
<feBlend mode="normal" in2="effect3_innerShadow_2525_24111" result="effect4_innerShadow_2525_24111"/>
</filter>
<linearGradient id="paint0_linear_2525_24111" x1="28.2756" y1="63.6301" x2="34.1056" y2="76.2401" gradientUnits="userSpaceOnUse">
<stop stop-color="white" stop-opacity="0.25"/>
<stop offset="1" stop-color="white" stop-opacity="0"/>
</linearGradient>
<linearGradient id="paint1_linear_2525_24111" x1="168.586" y1="114.208" x2="96.6389" y2="188.164" gradientUnits="userSpaceOnUse">
<stop offset="0.0941878" stop-color="#FFE5DC"/>
<stop offset="0.230705" stop-color="#FFFFE7" stop-opacity="0"/>
</linearGradient>
<linearGradient id="paint2_linear_2525_24111" x1="154.538" y1="145.287" x2="83.3661" y2="152.049" gradientUnits="userSpaceOnUse">
<stop stop-color="#FFFFE6"/>
<stop offset="0.360807" stop-color="#D5FFFF"/>
<stop offset="0.977083" stop-color="#D5FFFF" stop-opacity="0"/>
</linearGradient>
<linearGradient id="paint3_linear_2525_24111" x1="160.036" y1="155.531" x2="104.139" y2="213.485" gradientUnits="userSpaceOnUse">
<stop offset="0.0153056" stop-color="#D4FFE7"/>
<stop offset="0.312156" stop-color="#D5FFFF" stop-opacity="0"/>
</linearGradient>
<linearGradient id="paint4_linear_2525_24111" x1="249.432" y1="146.629" x2="258.752" y2="181.413" gradientUnits="userSpaceOnUse">
<stop offset="0.60706" stop-color="#FFE2D9"/>
<stop offset="1" stop-color="#E4EBFF"/>
</linearGradient>
<clipPath id="clip0_2525_24111">
<rect width="284" height="230" fill="white"/>
</clipPath>
</defs>
</svg>
