<svg width="269" height="277" viewBox="0 0 269 277" fill="none" xmlns="http://www.w3.org/2000/svg">
<g clip-path="url(#clip0_2525_24068)">
<path d="M86.7551 120.226C83.6798 108.749 71.8829 101.939 60.4059 105.014C48.9289 108.089 42.118 119.886 45.1932 131.363C48.2685 142.84 60.0654 149.651 71.5424 146.576C83.0194 143.5 89.8303 131.703 86.7551 120.226Z" fill="#ED392D"/>
<g filter="url(#filter0_ii_2525_24068)">
<path d="M218.47 -0.170898L144.517 112.136C132.987 98.2651 117.449 88.2061 99.9551 83.2871L91.0431 80.7811C82.5841 78.4031 81.5861 66.9591 89.4991 63.0781L218.47 -0.170898Z" fill="#A9CFFF"/>
</g>
<g filter="url(#filter1_i_2525_24068)">
<path d="M219.463 0.393066L154.191 121.38C169.831 121.787 184.832 127.435 196.735 137.398L213.06 151.063C220.149 156.996 231.017 151.469 230.314 142.288L219.463 0.393066Z" fill="#2329D6"/>
</g>
<g filter="url(#filter2_iiii_2525_24068)">
<path d="M138.633 76.5969L55.1529 98.9653C32.1006 105.142 18.4204 128.837 24.5972 151.889L46.9656 235.369C53.1424 258.421 76.8372 272.101 99.8895 265.925L183.369 243.556C206.421 237.379 220.102 213.685 213.925 190.632L191.557 107.153C185.38 84.1003 161.685 70.4201 138.633 76.5969Z" fill="white" fill-opacity="0.2"/>
</g>
<g filter="url(#filter3_f_2525_24068)">
<path d="M157.83 127.374C162.633 126.087 165.483 121.151 164.196 116.348C162.909 111.546 157.973 108.696 153.17 109.982C148.368 111.269 145.518 116.206 146.805 121.008C148.091 125.811 153.028 128.661 157.83 127.374Z" fill="#A9CFFF"/>
</g>
<g filter="url(#filter4_iii_2525_24068)">
<path d="M155.966 120.417C160.769 119.13 163.619 114.194 162.332 109.391C161.045 104.589 156.109 101.739 151.306 103.025C146.504 104.312 143.654 109.249 144.94 114.051C146.227 118.854 151.164 121.704 155.966 120.417Z" fill="white" fill-opacity="0.1"/>
</g>
<g filter="url(#filter5_f_2525_24068)">
<path d="M135.105 230.392C158.157 224.215 171.838 200.52 165.661 177.468C159.484 154.415 135.789 140.735 112.737 146.912C89.6846 153.089 76.0044 176.784 82.1812 199.836C88.358 222.888 112.053 236.568 135.105 230.392Z" fill="#A9CFFF"/>
</g>
<g filter="url(#filter6_iii_2525_24068)">
<path d="M127.807 203.154C145.421 198.434 155.874 180.329 151.154 162.715C146.435 145.101 128.329 134.648 110.715 139.368C93.1013 144.088 82.6483 162.193 87.368 179.807C92.0877 197.421 110.193 207.874 127.807 203.154Z" stroke="white" stroke-opacity="0.2" stroke-width="20.388"/>
</g>
<g filter="url(#filter7_iii_2525_24068)">
<path d="M12.8158 207.876C10.9398 203.329 12.0588 198.097 15.6288 194.714C19.1998 191.331 24.4848 190.496 28.9248 192.614L46.7978 201.141C54.7928 204.955 56.4738 215.603 50.0438 221.695L40.7148 230.534C34.2848 236.626 23.7438 234.373 20.3668 226.184L12.8158 207.876Z" fill="#E9E74C"/>
</g>
<g filter="url(#filter8_iii_2525_24068)">
<path d="M1.83468 205.991C-1.17532 198.694 0.619684 190.296 6.34968 184.867C12.0797 179.439 20.5617 178.099 27.6857 181.498L66.4017 199.968C74.3967 203.782 76.0777 214.43 69.6477 220.522L38.5387 249.996C32.1087 256.088 21.5677 253.835 18.1897 245.646L1.83468 205.991Z" fill="white" fill-opacity="0.2"/>
</g>
<g filter="url(#filter9_iii_2525_24068)">
<path d="M44.1385 186.501C46.7825 182.233 53.3855 183.635 54.2855 188.574C54.6795 190.736 55.0755 192.622 55.4275 193.778C56.7945 198.273 61.7655 201.2 59.4645 205.432C57.1365 209.716 52.9935 208.089 47.3025 208.254C45.8725 208.295 43.9295 208.608 41.8215 209.052C36.9595 210.078 32.8404 204.742 35.4564 200.517L44.1385 186.501Z" fill="white" fill-opacity="0.2"/>
</g>
<g filter="url(#filter10_iii_2525_24068)">
<path d="M18.7713 207.555C20.3283 206.08 20.3946 203.622 18.9195 202.065C17.4444 200.508 14.9864 200.442 13.4295 201.917C11.8725 203.392 11.8062 205.85 13.2813 207.407C14.7564 208.964 17.2144 209.03 18.7713 207.555Z" fill="white" fill-opacity="0.2"/>
</g>
<g filter="url(#filter11_iii_2525_24068)">
<path d="M27.2293 199.541C28.7863 198.066 28.8526 195.608 27.3775 194.051C25.9024 192.494 23.4444 192.428 21.8875 193.903C20.3305 195.378 20.2642 197.836 21.7393 199.393C23.2144 200.95 25.6724 201.016 27.2293 199.541Z" fill="white" fill-opacity="0.2"/>
</g>
<g filter="url(#filter12_iii_2525_24068)">
<path d="M4.58737 224.268C0.240371 226.778 1.43737 233.421 6.34537 234.474C8.49537 234.935 10.3674 235.389 11.5124 235.776C15.9624 237.282 18.7344 242.341 23.0354 240.173C27.3894 237.978 25.8914 233.787 26.2324 228.104C26.3184 226.675 26.6904 224.743 27.2004 222.65C28.3754 217.822 23.1694 213.54 18.8664 216.024L4.58737 224.268Z" fill="white" fill-opacity="0.2"/>
</g>
<g filter="url(#filter13_f_2525_24068)">
<path d="M180.716 182.637C169.765 177.627 164.948 164.689 169.957 153.738L185.06 120.721C190.07 109.77 203.008 104.954 213.959 109.963C224.91 114.972 229.726 127.91 224.717 138.861L209.614 171.878C204.605 182.829 191.667 187.646 180.716 182.637Z" fill="#FFE4DB"/>
</g>
<g filter="url(#filter14_f_2525_24068)">
<path d="M192.895 182.727C188.36 180.653 186.365 175.295 188.439 170.761L214.171 114.508C216.245 109.973 221.603 107.979 226.137 110.053C230.672 112.127 232.667 117.485 230.593 122.019L204.86 178.272C202.786 182.807 197.429 184.801 192.895 182.727Z" fill="#FFFFE7"/>
</g>
<g filter="url(#filter15_f_2525_24068)">
<path d="M203.808 158.909C200.205 145.462 208.185 131.64 221.632 128.037C235.08 124.434 248.902 132.414 252.505 145.861L256.233 159.774C259.836 173.221 251.856 187.043 238.409 190.647C224.961 194.25 211.139 186.27 207.536 172.822L203.808 158.909Z" fill="#FFFFE7"/>
</g>
<path d="M211.054 149.232C212.16 135.164 224.47 124.547 238.548 125.517C252.626 126.488 263.142 138.679 262.035 152.747L260.477 172.568C260.165 176.533 256.695 179.526 252.727 179.252L216.116 176.728C212.148 176.455 209.184 173.018 209.496 169.053L211.054 149.232Z" fill="url(#paint0_linear_2525_24068)"/>
<g filter="url(#filter16_f_2525_24068)">
<path d="M185 168.817C184.732 152.677 197.596 139.263 213.733 138.857C229.87 138.451 243.17 151.206 243.439 167.346L243.902 195.156C244.171 211.296 231.307 224.71 215.169 225.116C199.032 225.522 185.732 212.767 185.463 196.626L185 168.817Z" fill="url(#paint1_linear_2525_24068)"/>
</g>
<g style="mix-blend-mode:luminosity">
<path d="M188.903 162.398C192.346 146.671 207.927 136.524 223.703 139.734C239.479 142.943 249.476 158.294 246.033 174.021L240 201.577C236.557 217.303 220.977 227.45 205.201 224.241C189.425 221.031 179.427 205.68 182.87 189.953L188.903 162.398Z" fill="url(#paint2_linear_2525_24068)"/>
</g>
<g filter="url(#filter17_f_2525_24068)">
<path d="M214.882 144.89C218.04 140.34 224.289 139.211 228.839 142.369L242.226 151.659C246.772 154.814 247.9 161.057 244.745 165.603C242.266 169.175 237.767 170.74 233.606 169.479L222.247 166.034L215.136 156.675C212.508 153.217 212.405 148.459 214.882 144.89Z" fill="white"/>
</g>
<path d="M46.9377 140.071C62.0481 138.069 72.6746 124.197 70.6726 109.086C68.6707 93.9757 54.7984 83.3492 39.6879 85.3512C24.5775 87.3532 13.951 101.225 15.953 116.336C17.9549 131.446 31.8273 142.073 46.9377 140.071Z" stroke="#050121" stroke-width="14.4041" stroke-dasharray="9.41 9.41"/>
<path d="M241.241 219.422C240.132 219.719 238.933 219.678 237.778 219.26L220.483 213.013C220.109 212.878 219.685 212.992 219.428 213.296L207.574 227.353C205.965 229.261 203.42 229.916 201.09 229.023C198.757 228.128 197.302 225.937 197.381 223.44L197.965 205.019C197.977 204.626 197.742 204.261 197.379 204.11L180.727 197.158C178.41 196.19 177.021 193.939 177.189 191.423C177.357 188.913 179.028 186.873 181.447 186.225L198.67 181.61C199.079 181.5 199.36 181.178 199.386 180.79L200.623 162.137C200.79 159.627 202.466 157.587 204.892 156.937C207.319 156.287 209.79 157.216 211.189 159.304L221.587 174.841C221.804 175.165 222.208 175.303 222.617 175.193L239.849 170.576C242.267 169.928 244.733 170.86 246.133 172.948C247.537 175.043 247.459 177.686 245.936 179.682L234.985 194.033C234.746 194.347 234.726 194.78 234.933 195.114L235.786 196.49C236.605 197.81 236.199 199.544 234.878 200.363C233.559 201.181 231.824 200.776 231.005 199.456L230.152 198.08C228.722 195.775 228.867 192.777 230.512 190.621L241.464 176.269C241.513 176.205 241.509 176.194 241.494 176.149C241.465 176.064 241.398 176.006 241.375 176C241.375 176 241.354 175.997 241.305 176.01L224.074 180.628C221.343 181.359 218.465 180.291 216.912 177.97L206.514 162.434C206.471 162.37 206.453 162.343 206.348 162.371C206.243 162.399 206.241 162.431 206.236 162.51L205 181.161C204.815 183.949 202.856 186.313 200.126 187.044L182.903 191.659C182.853 191.673 182.836 191.685 182.836 191.685C182.82 191.701 182.79 191.785 182.807 191.874C182.816 191.922 182.818 191.934 182.894 191.966L199.546 198.918C202.05 199.963 203.674 202.487 203.588 205.198L203.004 223.618C203.001 223.695 203 223.73 203.104 223.77C203.204 223.808 203.225 223.784 203.273 223.726L215.127 209.669C216.895 207.573 219.815 206.791 222.394 207.722L239.689 213.969C239.76 213.995 239.789 214.006 239.857 213.922C239.927 213.835 239.908 213.806 239.868 213.74L238.441 211.441C237.622 210.121 238.028 208.387 239.349 207.568C240.668 206.75 242.403 207.155 243.222 208.476L244.648 210.774C245.965 212.898 245.8 215.523 244.228 217.464C243.43 218.449 242.384 219.115 241.241 219.422Z" fill="#2329D6"/>
</g>
<defs>
<filter id="filter0_ii_2525_24068" x="84.0947" y="-0.170898" width="134.375" height="114.093" filterUnits="userSpaceOnUse" color-interpolation-filters="sRGB">
<feFlood flood-opacity="0" result="BackgroundImageFix"/>
<feBlend mode="normal" in="SourceGraphic" in2="BackgroundImageFix" result="shape"/>
<feColorMatrix in="SourceAlpha" type="matrix" values="0 0 0 0 0 0 0 0 0 0 0 0 0 0 0 0 0 0 127 0" result="hardAlpha"/>
<feOffset dy="1.78543"/>
<feGaussianBlur stdDeviation="0.892714"/>
<feComposite in2="hardAlpha" operator="arithmetic" k2="-1" k3="1"/>
<feColorMatrix type="matrix" values="0 0 0 0 1 0 0 0 0 1 0 0 0 0 1 0 0 0 0.15 0"/>
<feBlend mode="normal" in2="shape" result="effect1_innerShadow_2525_24068"/>
<feColorMatrix in="SourceAlpha" type="matrix" values="0 0 0 0 0 0 0 0 0 0 0 0 0 0 0 0 0 0 127 0" result="hardAlpha"/>
<feOffset/>
<feGaussianBlur stdDeviation="15.1761"/>
<feComposite in2="hardAlpha" operator="arithmetic" k2="-1" k3="1"/>
<feColorMatrix type="matrix" values="0 0 0 0 1 0 0 0 0 1 0 0 0 0 1 0 0 0 0.05 0"/>
<feBlend mode="normal" in2="effect1_innerShadow_2525_24068" result="effect2_innerShadow_2525_24068"/>
</filter>
<filter id="filter1_i_2525_24068" x="154.191" y="0.393066" width="76.1553" height="153.131" filterUnits="userSpaceOnUse" color-interpolation-filters="sRGB">
<feFlood flood-opacity="0" result="BackgroundImageFix"/>
<feBlend mode="normal" in="SourceGraphic" in2="BackgroundImageFix" result="shape"/>
<feColorMatrix in="SourceAlpha" type="matrix" values="0 0 0 0 0 0 0 0 0 0 0 0 0 0 0 0 0 0 127 0" result="hardAlpha"/>
<feOffset/>
<feGaussianBlur stdDeviation="15.1761"/>
<feComposite in2="hardAlpha" operator="arithmetic" k2="-1" k3="1"/>
<feColorMatrix type="matrix" values="0 0 0 0 1 0 0 0 0 1 0 0 0 0 1 0 0 0 0.05 0"/>
<feBlend mode="normal" in2="shape" result="effect1_innerShadow_2525_24068"/>
</filter>
<filter id="filter2_iiii_2525_24068" x="23.1143" y="74.1138" width="193.294" height="194.294" filterUnits="userSpaceOnUse" color-interpolation-filters="sRGB">
<feFlood flood-opacity="0" result="BackgroundImageFix"/>
<feBlend mode="normal" in="SourceGraphic" in2="BackgroundImageFix" result="shape"/>
<feColorMatrix in="SourceAlpha" type="matrix" values="0 0 0 0 0 0 0 0 0 0 0 0 0 0 0 0 0 0 127 0" result="hardAlpha"/>
<feOffset dy="1"/>
<feGaussianBlur stdDeviation="2"/>
<feComposite in2="hardAlpha" operator="arithmetic" k2="-1" k3="1"/>
<feColorMatrix type="matrix" values="0 0 0 0 1 0 0 0 0 1 0 0 0 0 1 0 0 0 0.3 0"/>
<feBlend mode="normal" in2="shape" result="effect1_innerShadow_2525_24068"/>
<feColorMatrix in="SourceAlpha" type="matrix" values="0 0 0 0 0 0 0 0 0 0 0 0 0 0 0 0 0 0 127 0" result="hardAlpha"/>
<feOffset dy="-1"/>
<feGaussianBlur stdDeviation="2"/>
<feComposite in2="hardAlpha" operator="arithmetic" k2="-1" k3="1"/>
<feColorMatrix type="matrix" values="0 0 0 0 1 0 0 0 0 1 0 0 0 0 1 0 0 0 0.5 0"/>
<feBlend mode="normal" in2="effect1_innerShadow_2525_24068" result="effect2_innerShadow_2525_24068"/>
<feColorMatrix in="SourceAlpha" type="matrix" values="0 0 0 0 0 0 0 0 0 0 0 0 0 0 0 0 0 0 127 0" result="hardAlpha"/>
<feOffset dy="1"/>
<feGaussianBlur stdDeviation="22"/>
<feComposite in2="hardAlpha" operator="arithmetic" k2="-1" k3="1"/>
<feColorMatrix type="matrix" values="0 0 0 0 1 0 0 0 0 1 0 0 0 0 1 0 0 0 0.45 0"/>
<feBlend mode="normal" in2="effect2_innerShadow_2525_24068" result="effect3_innerShadow_2525_24068"/>
<feColorMatrix in="SourceAlpha" type="matrix" values="0 0 0 0 0 0 0 0 0 0 0 0 0 0 0 0 0 0 127 0" result="hardAlpha"/>
<feOffset dx="1" dy="1"/>
<feGaussianBlur stdDeviation="1"/>
<feComposite in2="hardAlpha" operator="arithmetic" k2="-1" k3="1"/>
<feColorMatrix type="matrix" values="0 0 0 0 1 0 0 0 0 1 0 0 0 0 1 0 0 0 1 0"/>
<feBlend mode="normal" in2="effect3_innerShadow_2525_24068" result="effect4_innerShadow_2525_24068"/>
</filter>
<filter id="filter3_f_2525_24068" x="132.092" y="95.2693" width="46.8169" height="46.8179" filterUnits="userSpaceOnUse" color-interpolation-filters="sRGB">
<feFlood flood-opacity="0" result="BackgroundImageFix"/>
<feBlend mode="normal" in="SourceGraphic" in2="BackgroundImageFix" result="shape"/>
<feGaussianBlur stdDeviation="7.20203" result="effect1_foregroundBlur_2525_24068"/>
</filter>
<filter id="filter4_iii_2525_24068" x="144.632" y="101.716" width="18.0088" height="20.0098" filterUnits="userSpaceOnUse" color-interpolation-filters="sRGB">
<feFlood flood-opacity="0" result="BackgroundImageFix"/>
<feBlend mode="normal" in="SourceGraphic" in2="BackgroundImageFix" result="shape"/>
<feColorMatrix in="SourceAlpha" type="matrix" values="0 0 0 0 0 0 0 0 0 0 0 0 0 0 0 0 0 0 127 0" result="hardAlpha"/>
<feOffset dy="1"/>
<feGaussianBlur stdDeviation="2"/>
<feComposite in2="hardAlpha" operator="arithmetic" k2="-1" k3="1"/>
<feColorMatrix type="matrix" values="0 0 0 0 1 0 0 0 0 1 0 0 0 0 1 0 0 0 0.3 0"/>
<feBlend mode="normal" in2="shape" result="effect1_innerShadow_2525_24068"/>
<feColorMatrix in="SourceAlpha" type="matrix" values="0 0 0 0 0 0 0 0 0 0 0 0 0 0 0 0 0 0 127 0" result="hardAlpha"/>
<feOffset dy="-1"/>
<feGaussianBlur stdDeviation="2"/>
<feComposite in2="hardAlpha" operator="arithmetic" k2="-1" k3="1"/>
<feColorMatrix type="matrix" values="0 0 0 0 1 0 0 0 0 1 0 0 0 0 1 0 0 0 0.5 0"/>
<feBlend mode="normal" in2="effect1_innerShadow_2525_24068" result="effect2_innerShadow_2525_24068"/>
<feColorMatrix in="SourceAlpha" type="matrix" values="0 0 0 0 0 0 0 0 0 0 0 0 0 0 0 0 0 0 127 0" result="hardAlpha"/>
<feOffset dy="-1"/>
<feGaussianBlur stdDeviation="0.5"/>
<feComposite in2="hardAlpha" operator="arithmetic" k2="-1" k3="1"/>
<feColorMatrix type="matrix" values="0 0 0 0 1 0 0 0 0 1 0 0 0 0 1 0 0 0 0.9 0"/>
<feBlend mode="normal" in2="effect2_innerShadow_2525_24068" result="effect3_innerShadow_2525_24068"/>
</filter>
<filter id="filter5_f_2525_24068" x="66.2942" y="131.025" width="115.253" height="115.254" filterUnits="userSpaceOnUse" color-interpolation-filters="sRGB">
<feFlood flood-opacity="0" result="BackgroundImageFix"/>
<feBlend mode="normal" in="SourceGraphic" in2="BackgroundImageFix" result="shape"/>
<feGaussianBlur stdDeviation="7.20203" result="effect1_foregroundBlur_2525_24068"/>
</filter>
<filter id="filter6_iii_2525_24068" x="76.0381" y="127.038" width="86.4463" height="88.4458" filterUnits="userSpaceOnUse" color-interpolation-filters="sRGB">
<feFlood flood-opacity="0" result="BackgroundImageFix"/>
<feBlend mode="normal" in="SourceGraphic" in2="BackgroundImageFix" result="shape"/>
<feColorMatrix in="SourceAlpha" type="matrix" values="0 0 0 0 0 0 0 0 0 0 0 0 0 0 0 0 0 0 127 0" result="hardAlpha"/>
<feOffset dy="1"/>
<feGaussianBlur stdDeviation="2"/>
<feComposite in2="hardAlpha" operator="arithmetic" k2="-1" k3="1"/>
<feColorMatrix type="matrix" values="0 0 0 0 1 0 0 0 0 1 0 0 0 0 1 0 0 0 0.3 0"/>
<feBlend mode="normal" in2="shape" result="effect1_innerShadow_2525_24068"/>
<feColorMatrix in="SourceAlpha" type="matrix" values="0 0 0 0 0 0 0 0 0 0 0 0 0 0 0 0 0 0 127 0" result="hardAlpha"/>
<feOffset dy="-1"/>
<feGaussianBlur stdDeviation="2"/>
<feComposite in2="hardAlpha" operator="arithmetic" k2="-1" k3="1"/>
<feColorMatrix type="matrix" values="0 0 0 0 1 0 0 0 0 1 0 0 0 0 1 0 0 0 0.5 0"/>
<feBlend mode="normal" in2="effect1_innerShadow_2525_24068" result="effect2_innerShadow_2525_24068"/>
<feColorMatrix in="SourceAlpha" type="matrix" values="0 0 0 0 0 0 0 0 0 0 0 0 0 0 0 0 0 0 127 0" result="hardAlpha"/>
<feOffset dy="-1"/>
<feGaussianBlur stdDeviation="0.5"/>
<feComposite in2="hardAlpha" operator="arithmetic" k2="-1" k3="1"/>
<feColorMatrix type="matrix" values="0 0 0 0 1 0 0 0 0 1 0 0 0 0 1 0 0 0 0.9 0"/>
<feBlend mode="normal" in2="effect2_innerShadow_2525_24068" result="effect3_innerShadow_2525_24068"/>
</filter>
<filter id="filter7_iii_2525_24068" x="11.917" y="190.34" width="42.0703" height="44.7707" filterUnits="userSpaceOnUse" color-interpolation-filters="sRGB">
<feFlood flood-opacity="0" result="BackgroundImageFix"/>
<feBlend mode="normal" in="SourceGraphic" in2="BackgroundImageFix" result="shape"/>
<feColorMatrix in="SourceAlpha" type="matrix" values="0 0 0 0 0 0 0 0 0 0 0 0 0 0 0 0 0 0 127 0" result="hardAlpha"/>
<feOffset dy="1.11461"/>
<feGaussianBlur stdDeviation="2.22922"/>
<feComposite in2="hardAlpha" operator="arithmetic" k2="-1" k3="1"/>
<feColorMatrix type="matrix" values="0 0 0 0 1 0 0 0 0 1 0 0 0 0 1 0 0 0 0.3 0"/>
<feBlend mode="normal" in2="shape" result="effect1_innerShadow_2525_24068"/>
<feColorMatrix in="SourceAlpha" type="matrix" values="0 0 0 0 0 0 0 0 0 0 0 0 0 0 0 0 0 0 127 0" result="hardAlpha"/>
<feOffset dy="-1.11461"/>
<feGaussianBlur stdDeviation="2.22922"/>
<feComposite in2="hardAlpha" operator="arithmetic" k2="-1" k3="1"/>
<feColorMatrix type="matrix" values="0 0 0 0 1 0 0 0 0 1 0 0 0 0 1 0 0 0 0.5 0"/>
<feBlend mode="normal" in2="effect1_innerShadow_2525_24068" result="effect2_innerShadow_2525_24068"/>
<feColorMatrix in="SourceAlpha" type="matrix" values="0 0 0 0 0 0 0 0 0 0 0 0 0 0 0 0 0 0 127 0" result="hardAlpha"/>
<feOffset dy="1.11461"/>
<feGaussianBlur stdDeviation="0.557305"/>
<feComposite in2="hardAlpha" operator="arithmetic" k2="-1" k3="1"/>
<feColorMatrix type="matrix" values="0 0 0 0 1 0 0 0 0 1 0 0 0 0 1 0 0 0 0.95 0"/>
<feBlend mode="normal" in2="effect2_innerShadow_2525_24068" result="effect3_innerShadow_2525_24068"/>
</filter>
<filter id="filter8_iii_2525_24068" x="0.392578" y="178.524" width="73.1982" height="76.05" filterUnits="userSpaceOnUse" color-interpolation-filters="sRGB">
<feFlood flood-opacity="0" result="BackgroundImageFix"/>
<feBlend mode="normal" in="SourceGraphic" in2="BackgroundImageFix" result="shape"/>
<feColorMatrix in="SourceAlpha" type="matrix" values="0 0 0 0 0 0 0 0 0 0 0 0 0 0 0 0 0 0 127 0" result="hardAlpha"/>
<feOffset dy="1.11461"/>
<feGaussianBlur stdDeviation="2.22922"/>
<feComposite in2="hardAlpha" operator="arithmetic" k2="-1" k3="1"/>
<feColorMatrix type="matrix" values="0 0 0 0 1 0 0 0 0 1 0 0 0 0 1 0 0 0 0.3 0"/>
<feBlend mode="normal" in2="shape" result="effect1_innerShadow_2525_24068"/>
<feColorMatrix in="SourceAlpha" type="matrix" values="0 0 0 0 0 0 0 0 0 0 0 0 0 0 0 0 0 0 127 0" result="hardAlpha"/>
<feOffset dy="-1.11461"/>
<feGaussianBlur stdDeviation="2.22922"/>
<feComposite in2="hardAlpha" operator="arithmetic" k2="-1" k3="1"/>
<feColorMatrix type="matrix" values="0 0 0 0 1 0 0 0 0 1 0 0 0 0 1 0 0 0 0.5 0"/>
<feBlend mode="normal" in2="effect1_innerShadow_2525_24068" result="effect2_innerShadow_2525_24068"/>
<feColorMatrix in="SourceAlpha" type="matrix" values="0 0 0 0 0 0 0 0 0 0 0 0 0 0 0 0 0 0 127 0" result="hardAlpha"/>
<feOffset dy="1.11461"/>
<feGaussianBlur stdDeviation="0.557305"/>
<feComposite in2="hardAlpha" operator="arithmetic" k2="-1" k3="1"/>
<feColorMatrix type="matrix" values="0 0 0 0 1 0 0 0 0 1 0 0 0 0 1 0 0 0 0.95 0"/>
<feBlend mode="normal" in2="effect2_innerShadow_2525_24068" result="effect3_innerShadow_2525_24068"/>
</filter>
<filter id="filter9_iii_2525_24068" x="34.6436" y="182.849" width="25.4199" height="27.446" filterUnits="userSpaceOnUse" color-interpolation-filters="sRGB">
<feFlood flood-opacity="0" result="BackgroundImageFix"/>
<feBlend mode="normal" in="SourceGraphic" in2="BackgroundImageFix" result="shape"/>
<feColorMatrix in="SourceAlpha" type="matrix" values="0 0 0 0 0 0 0 0 0 0 0 0 0 0 0 0 0 0 127 0" result="hardAlpha"/>
<feOffset dy="1.11461"/>
<feGaussianBlur stdDeviation="2.22922"/>
<feComposite in2="hardAlpha" operator="arithmetic" k2="-1" k3="1"/>
<feColorMatrix type="matrix" values="0 0 0 0 1 0 0 0 0 1 0 0 0 0 1 0 0 0 0.3 0"/>
<feBlend mode="normal" in2="shape" result="effect1_innerShadow_2525_24068"/>
<feColorMatrix in="SourceAlpha" type="matrix" values="0 0 0 0 0 0 0 0 0 0 0 0 0 0 0 0 0 0 127 0" result="hardAlpha"/>
<feOffset dy="-1.11461"/>
<feGaussianBlur stdDeviation="2.22922"/>
<feComposite in2="hardAlpha" operator="arithmetic" k2="-1" k3="1"/>
<feColorMatrix type="matrix" values="0 0 0 0 1 0 0 0 0 1 0 0 0 0 1 0 0 0 0.5 0"/>
<feBlend mode="normal" in2="effect1_innerShadow_2525_24068" result="effect2_innerShadow_2525_24068"/>
<feColorMatrix in="SourceAlpha" type="matrix" values="0 0 0 0 0 0 0 0 0 0 0 0 0 0 0 0 0 0 127 0" result="hardAlpha"/>
<feOffset dy="1.11461"/>
<feGaussianBlur stdDeviation="0.557305"/>
<feComposite in2="hardAlpha" operator="arithmetic" k2="-1" k3="1"/>
<feColorMatrix type="matrix" values="0 0 0 0 1 0 0 0 0 1 0 0 0 0 1 0 0 0 0.95 0"/>
<feBlend mode="normal" in2="effect2_innerShadow_2525_24068" result="effect3_innerShadow_2525_24068"/>
</filter>
<filter id="filter10_iii_2525_24068" x="12.2168" y="199.738" width="7.7666" height="9.99631" filterUnits="userSpaceOnUse" color-interpolation-filters="sRGB">
<feFlood flood-opacity="0" result="BackgroundImageFix"/>
<feBlend mode="normal" in="SourceGraphic" in2="BackgroundImageFix" result="shape"/>
<feColorMatrix in="SourceAlpha" type="matrix" values="0 0 0 0 0 0 0 0 0 0 0 0 0 0 0 0 0 0 127 0" result="hardAlpha"/>
<feOffset dy="1.11461"/>
<feGaussianBlur stdDeviation="2.22922"/>
<feComposite in2="hardAlpha" operator="arithmetic" k2="-1" k3="1"/>
<feColorMatrix type="matrix" values="0 0 0 0 1 0 0 0 0 1 0 0 0 0 1 0 0 0 0.3 0"/>
<feBlend mode="normal" in2="shape" result="effect1_innerShadow_2525_24068"/>
<feColorMatrix in="SourceAlpha" type="matrix" values="0 0 0 0 0 0 0 0 0 0 0 0 0 0 0 0 0 0 127 0" result="hardAlpha"/>
<feOffset dy="-1.11461"/>
<feGaussianBlur stdDeviation="2.22922"/>
<feComposite in2="hardAlpha" operator="arithmetic" k2="-1" k3="1"/>
<feColorMatrix type="matrix" values="0 0 0 0 1 0 0 0 0 1 0 0 0 0 1 0 0 0 0.5 0"/>
<feBlend mode="normal" in2="effect1_innerShadow_2525_24068" result="effect2_innerShadow_2525_24068"/>
<feColorMatrix in="SourceAlpha" type="matrix" values="0 0 0 0 0 0 0 0 0 0 0 0 0 0 0 0 0 0 127 0" result="hardAlpha"/>
<feOffset dy="1.11461"/>
<feGaussianBlur stdDeviation="0.557305"/>
<feComposite in2="hardAlpha" operator="arithmetic" k2="-1" k3="1"/>
<feColorMatrix type="matrix" values="0 0 0 0 1 0 0 0 0 1 0 0 0 0 1 0 0 0 0.95 0"/>
<feBlend mode="normal" in2="effect2_innerShadow_2525_24068" result="effect3_innerShadow_2525_24068"/>
</filter>
<filter id="filter11_iii_2525_24068" x="20.6748" y="191.724" width="7.7666" height="9.99631" filterUnits="userSpaceOnUse" color-interpolation-filters="sRGB">
<feFlood flood-opacity="0" result="BackgroundImageFix"/>
<feBlend mode="normal" in="SourceGraphic" in2="BackgroundImageFix" result="shape"/>
<feColorMatrix in="SourceAlpha" type="matrix" values="0 0 0 0 0 0 0 0 0 0 0 0 0 0 0 0 0 0 127 0" result="hardAlpha"/>
<feOffset dy="1.11461"/>
<feGaussianBlur stdDeviation="2.22922"/>
<feComposite in2="hardAlpha" operator="arithmetic" k2="-1" k3="1"/>
<feColorMatrix type="matrix" values="0 0 0 0 1 0 0 0 0 1 0 0 0 0 1 0 0 0 0.3 0"/>
<feBlend mode="normal" in2="shape" result="effect1_innerShadow_2525_24068"/>
<feColorMatrix in="SourceAlpha" type="matrix" values="0 0 0 0 0 0 0 0 0 0 0 0 0 0 0 0 0 0 127 0" result="hardAlpha"/>
<feOffset dy="-1.11461"/>
<feGaussianBlur stdDeviation="2.22922"/>
<feComposite in2="hardAlpha" operator="arithmetic" k2="-1" k3="1"/>
<feColorMatrix type="matrix" values="0 0 0 0 1 0 0 0 0 1 0 0 0 0 1 0 0 0 0.5 0"/>
<feBlend mode="normal" in2="effect1_innerShadow_2525_24068" result="effect2_innerShadow_2525_24068"/>
<feColorMatrix in="SourceAlpha" type="matrix" values="0 0 0 0 0 0 0 0 0 0 0 0 0 0 0 0 0 0 127 0" result="hardAlpha"/>
<feOffset dy="1.11461"/>
<feGaussianBlur stdDeviation="0.557305"/>
<feComposite in2="hardAlpha" operator="arithmetic" k2="-1" k3="1"/>
<feColorMatrix type="matrix" values="0 0 0 0 1 0 0 0 0 1 0 0 0 0 1 0 0 0 0.95 0"/>
<feBlend mode="normal" in2="effect2_innerShadow_2525_24068" result="effect3_innerShadow_2525_24068"/>
</filter>
<filter id="filter12_iii_2525_24068" x="1.9082" y="214.181" width="25.4609" height="27.6389" filterUnits="userSpaceOnUse" color-interpolation-filters="sRGB">
<feFlood flood-opacity="0" result="BackgroundImageFix"/>
<feBlend mode="normal" in="SourceGraphic" in2="BackgroundImageFix" result="shape"/>
<feColorMatrix in="SourceAlpha" type="matrix" values="0 0 0 0 0 0 0 0 0 0 0 0 0 0 0 0 0 0 127 0" result="hardAlpha"/>
<feOffset dy="1.11461"/>
<feGaussianBlur stdDeviation="2.22922"/>
<feComposite in2="hardAlpha" operator="arithmetic" k2="-1" k3="1"/>
<feColorMatrix type="matrix" values="0 0 0 0 1 0 0 0 0 1 0 0 0 0 1 0 0 0 0.3 0"/>
<feBlend mode="normal" in2="shape" result="effect1_innerShadow_2525_24068"/>
<feColorMatrix in="SourceAlpha" type="matrix" values="0 0 0 0 0 0 0 0 0 0 0 0 0 0 0 0 0 0 127 0" result="hardAlpha"/>
<feOffset dy="-1.11461"/>
<feGaussianBlur stdDeviation="2.22922"/>
<feComposite in2="hardAlpha" operator="arithmetic" k2="-1" k3="1"/>
<feColorMatrix type="matrix" values="0 0 0 0 1 0 0 0 0 1 0 0 0 0 1 0 0 0 0.5 0"/>
<feBlend mode="normal" in2="effect1_innerShadow_2525_24068" result="effect2_innerShadow_2525_24068"/>
<feColorMatrix in="SourceAlpha" type="matrix" values="0 0 0 0 0 0 0 0 0 0 0 0 0 0 0 0 0 0 127 0" result="hardAlpha"/>
<feOffset dy="1.11461"/>
<feGaussianBlur stdDeviation="0.557305"/>
<feComposite in2="hardAlpha" operator="arithmetic" k2="-1" k3="1"/>
<feColorMatrix type="matrix" values="0 0 0 0 1 0 0 0 0 1 0 0 0 0 1 0 0 0 0.95 0"/>
<feBlend mode="normal" in2="effect2_innerShadow_2525_24068" result="effect3_innerShadow_2525_24068"/>
</filter>
<filter id="filter13_f_2525_24068" x="145.024" y="85.0299" width="104.627" height="122.54" filterUnits="userSpaceOnUse" color-interpolation-filters="sRGB">
<feFlood flood-opacity="0" result="BackgroundImageFix"/>
<feBlend mode="normal" in="SourceGraphic" in2="BackgroundImageFix" result="shape"/>
<feGaussianBlur stdDeviation="11.476" result="effect1_foregroundBlur_2525_24068"/>
</filter>
<filter id="filter14_f_2525_24068" x="164.667" y="86.2804" width="89.6979" height="120.219" filterUnits="userSpaceOnUse" color-interpolation-filters="sRGB">
<feFlood flood-opacity="0" result="BackgroundImageFix"/>
<feBlend mode="normal" in="SourceGraphic" in2="BackgroundImageFix" result="shape"/>
<feGaussianBlur stdDeviation="11.476" result="effect1_foregroundBlur_2525_24068"/>
</filter>
<filter id="filter15_f_2525_24068" x="174.135" y="98.3637" width="111.772" height="121.957" filterUnits="userSpaceOnUse" color-interpolation-filters="sRGB">
<feFlood flood-opacity="0" result="BackgroundImageFix"/>
<feBlend mode="normal" in="SourceGraphic" in2="BackgroundImageFix" result="shape"/>
<feGaussianBlur stdDeviation="14.4041" result="effect1_foregroundBlur_2525_24068"/>
</filter>
<filter id="filter16_f_2525_24068" x="163.39" y="117.242" width="102.122" height="129.49" filterUnits="userSpaceOnUse" color-interpolation-filters="sRGB">
<feFlood flood-opacity="0" result="BackgroundImageFix"/>
<feBlend mode="normal" in="SourceGraphic" in2="BackgroundImageFix" result="shape"/>
<feGaussianBlur stdDeviation="10.803" result="effect1_foregroundBlur_2525_24068"/>
</filter>
<filter id="filter17_f_2525_24068" x="209.491" y="136.977" width="40.6434" height="36.5341" filterUnits="userSpaceOnUse" color-interpolation-filters="sRGB">
<feFlood flood-opacity="0" result="BackgroundImageFix"/>
<feBlend mode="normal" in="SourceGraphic" in2="BackgroundImageFix" result="shape"/>
<feGaussianBlur stdDeviation="1.80051" result="effect1_foregroundBlur_2525_24068"/>
</filter>
<linearGradient id="paint0_linear_2525_24068" x1="257.33" y1="126.812" x2="185.384" y2="200.767" gradientUnits="userSpaceOnUse">
<stop offset="0.0941878" stop-color="#FFE5DC"/>
<stop offset="0.230705" stop-color="#FFFFE7" stop-opacity="0"/>
</linearGradient>
<linearGradient id="paint1_linear_2525_24068" x1="243.281" y1="157.89" x2="172.109" y2="164.652" gradientUnits="userSpaceOnUse">
<stop stop-color="#FFFFE6"/>
<stop offset="0.360807" stop-color="#D5FFFF"/>
<stop offset="0.977083" stop-color="#D5FFFF" stop-opacity="0"/>
</linearGradient>
<linearGradient id="paint2_linear_2525_24068" x1="248.78" y1="168.135" x2="192.883" y2="226.089" gradientUnits="userSpaceOnUse">
<stop offset="0.0153056" stop-color="#D4FFE7"/>
<stop offset="0.312156" stop-color="#D5FFFF" stop-opacity="0"/>
</linearGradient>
<clipPath id="clip0_2525_24068">
<rect width="269" height="277" fill="white"/>
</clipPath>
</defs>
</svg>
