<svg width="220" height="270" viewBox="0 0 220 270" fill="none" xmlns="http://www.w3.org/2000/svg">
<g clip-path="url(#clip0_2525_24181)">
<path d="M83.7103 128.269L53.9492 136.243L61.9237 166.004L91.6847 158.03L83.7103 128.269Z" fill="#ED392D"/>
<path d="M111.9 162.047C107.515 145.68 117.227 128.857 133.594 124.472L165.698 115.869C182.064 111.484 198.887 121.197 203.273 137.563L218.492 194.363C222.878 210.729 213.165 227.552 196.798 231.937L164.694 240.54C148.328 244.925 131.505 235.212 127.119 218.846L111.9 162.047Z" fill="#2329D6"/>
<g filter="url(#filter0_iii_2525_24181)">
<path fill-rule="evenodd" clip-rule="evenodd" d="M163.975 156.587L184.68 151.039C187.192 150.366 189.834 151.894 190.508 154.41C191.182 156.925 189.642 159.508 187.13 160.181L166.424 165.729C163.913 166.402 161.288 164.936 160.613 162.42C159.939 159.904 161.463 157.26 163.975 156.587ZM195.35 190.858L162.025 199.788C159.513 200.461 156.872 198.932 156.198 196.417C155.523 193.901 157.064 191.318 159.575 190.645L192.9 181.716C195.412 181.043 198.037 182.51 198.711 185.025C199.385 187.541 197.862 190.185 195.35 190.858Z" fill="white"/>
</g>
<g filter="url(#filter1_iiii_2525_24181)">
<path d="M8.4526 97.3969C3.1676 77.6729 14.8726 57.3999 34.5966 52.1149L92.6746 36.5529C97.4106 35.2839 102.457 35.9479 106.703 38.3999L130.26 51.9999L153.817 65.6009C158.063 68.0519 161.161 72.0899 162.43 76.8259L188.359 173.593C193.644 193.317 181.939 213.591 162.215 218.876L84.8356 239.609C65.1116 244.894 44.8376 233.189 39.5526 213.465L8.4526 97.3969Z" fill="white" fill-opacity="0.2"/>
</g>
<g filter="url(#filter2_f_2525_24181)">
<path fill-rule="evenodd" clip-rule="evenodd" d="M111.456 126.61L143.093 118.133C146.93 117.105 150.967 119.44 151.997 123.283C153.027 127.127 150.673 131.074 146.836 132.102L115.199 140.579C111.362 141.607 107.35 139.366 106.32 135.522C105.29 131.679 107.619 127.639 111.456 126.61ZM159.394 178.973L108.477 192.616C104.639 193.645 100.603 191.31 99.5734 187.466C98.5434 183.623 100.896 179.676 104.734 178.648L155.652 165.005C159.489 163.976 163.5 166.217 164.53 170.061C165.56 173.904 163.232 177.945 159.394 178.973Z" fill="#A9CFFF"/>
</g>
<g filter="url(#filter3_iii_2525_24181)">
<path fill-rule="evenodd" clip-rule="evenodd" d="M109.861 120.658L141.498 112.181C145.335 111.153 149.372 113.488 150.402 117.331C151.431 121.175 149.078 125.121 145.24 126.15L113.604 134.627C109.766 135.655 105.755 133.414 104.725 129.57C103.695 125.727 106.024 121.687 109.861 120.658ZM157.799 173.021L106.881 186.664C103.044 187.692 99.0067 185.358 97.9777 181.514C96.9477 177.67 99.3007 173.724 103.139 172.696L154.057 159.052C157.894 158.024 161.905 160.265 162.935 164.109C163.965 167.952 161.637 171.992 157.799 173.021Z" fill="white" fill-opacity="0.2"/>
</g>
<g filter="url(#filter4_f_2525_24181)">
<path d="M119.979 112.724C126.521 111.041 135.598 108.639 143.284 106.55C147.222 105.484 147.962 100.232 144.467 98.1238C131.825 90.4788 109.208 76.7948 96.2666 68.9688C92.6866 66.8038 88.3286 70.1208 89.4116 74.1618L96.0336 98.8738C98.8116 109.242 109.627 115.498 119.979 112.724Z" fill="#A9CFFF"/>
</g>
<g filter="url(#filter5_iii_2525_24181)">
<path d="M117.587 103.796C124.128 102.113 133.206 99.711 140.892 97.621C144.83 96.556 145.57 91.304 142.075 89.196C129.433 81.551 106.816 67.867 93.875 60.041C90.295 57.875 85.937 61.193 87.02 65.234L93.641 89.945C96.42 100.314 107.235 106.57 117.587 103.796Z" fill="white" fill-opacity="0.2"/>
</g>
<path d="M65.8537 133.053L53.9492 136.243L57.139 148.148L69.0435 144.958L65.8537 133.053Z" fill="#ED392D"/>
<path d="M56.7771 259.886C77.3228 254.381 89.5155 233.263 84.0103 212.717C78.5051 192.171 57.3866 179.978 36.8409 185.484C16.2952 190.989 4.1025 212.107 9.6077 232.653C15.1129 253.199 36.2314 265.391 56.7771 259.886Z" stroke="#050121" stroke-width="12.3244" stroke-dasharray="8.05 8.05"/>
<mask id="mask0_2525_24181" style="mask-type:alpha" maskUnits="userSpaceOnUse" x="26" y="144" width="92" height="105">
<path d="M50.6105 248.779L26.3945 164.359L92.9585 144.929L117.573 230.837L50.6105 248.779Z" fill="#2329D6"/>
</mask>
<g mask="url(#mask0_2525_24181)">
<path d="M56.7771 259.886C77.3228 254.381 89.5155 233.263 84.0103 212.717C78.5051 192.171 57.3866 179.978 36.8409 185.484C16.2952 190.989 4.1025 212.107 9.6077 232.653C15.1129 253.199 36.2314 265.391 56.7771 259.886Z" stroke="white" stroke-width="12.3244" stroke-dasharray="8.05 8.05"/>
</g>
<g filter="url(#filter6_f_2525_24181)">
<path d="M106.724 28.8452C103.641 17.3392 110.469 5.51322 121.974 2.43022C133.48 -0.652778 145.306 6.17522 148.389 17.6812L151.579 29.5852C154.662 41.0912 147.834 52.9172 136.328 56.0002C124.823 59.0832 112.996 52.2552 109.913 40.7492L106.724 28.8452Z" fill="#FFFFE7"/>
</g>
<path d="M112.923 20.5648C113.869 8.52783 124.401 -0.556171 136.447 0.273829C148.492 1.10383 157.49 11.5348 156.543 23.5718L155.21 40.5308C154.943 43.9238 151.974 46.4848 148.579 46.2508L117.254 44.0908C113.859 43.8568 111.323 40.9168 111.589 37.5238L112.923 20.5648Z" fill="url(#paint0_linear_2525_24181)"/>
<g filter="url(#filter7_f_2525_24181)">
<path d="M90.6315 37.3228C90.4015 23.5128 101.408 12.0358 115.215 11.6888C129.023 11.3408 140.402 22.2548 140.632 36.0648L141.028 59.8587C141.258 73.6687 130.252 85.1458 116.444 85.4928C102.637 85.8408 91.2575 74.9268 91.0275 61.1168L90.6315 37.3228Z" fill="url(#paint1_linear_2525_24181)"/>
</g>
<g style="mix-blend-mode:luminosity">
<path d="M93.9701 31.8287C96.9161 18.3727 110.247 9.69075 123.745 12.4367C137.244 15.1827 145.798 28.3178 142.852 41.7738L137.69 65.3507C134.744 78.8068 121.413 87.4888 107.915 84.7428C94.4171 81.9958 85.8621 68.8618 88.8081 55.4058L93.9701 31.8287Z" fill="url(#paint2_linear_2525_24181)"/>
</g>
<g filter="url(#filter8_f_2525_24181)">
<path d="M116.198 16.8502C118.9 12.9572 124.247 11.9912 128.14 14.6932L139.594 22.6422C143.484 25.3412 144.449 30.6832 141.75 34.5732C139.629 37.6292 135.779 38.9682 132.219 37.8892L122.5 34.9422L116.416 26.9342C114.167 23.9752 114.079 19.9042 116.198 16.8502Z" fill="white"/>
</g>
<path d="M166.187 55.1323L148.33 59.917L153.912 80.7497L171.769 75.965L166.187 55.1323Z" stroke="#050121" stroke-width="6.16218" stroke-dasharray="12.32 12.32"/>
</g>
<defs>
<filter id="filter0_iii_2525_24181" x="156.039" y="148.351" width="42.832" height="54.1245" filterUnits="userSpaceOnUse" color-interpolation-filters="sRGB">
<feFlood flood-opacity="0" result="BackgroundImageFix"/>
<feBlend mode="normal" in="SourceGraphic" in2="BackgroundImageFix" result="shape"/>
<feColorMatrix in="SourceAlpha" type="matrix" values="0 0 0 0 0 0 0 0 0 0 0 0 0 0 0 0 0 0 127 0" result="hardAlpha"/>
<feOffset dy="2.5288"/>
<feGaussianBlur stdDeviation="5.05759"/>
<feComposite in2="hardAlpha" operator="arithmetic" k2="-1" k3="1"/>
<feColorMatrix type="matrix" values="0 0 0 0 1 0 0 0 0 1 0 0 0 0 1 0 0 0 0.3 0"/>
<feBlend mode="normal" in2="shape" result="effect1_innerShadow_2525_24181"/>
<feColorMatrix in="SourceAlpha" type="matrix" values="0 0 0 0 0 0 0 0 0 0 0 0 0 0 0 0 0 0 127 0" result="hardAlpha"/>
<feOffset dy="-2.5288"/>
<feGaussianBlur stdDeviation="5.05759"/>
<feComposite in2="hardAlpha" operator="arithmetic" k2="-1" k3="1"/>
<feColorMatrix type="matrix" values="0 0 0 0 1 0 0 0 0 1 0 0 0 0 1 0 0 0 0.5 0"/>
<feBlend mode="normal" in2="effect1_innerShadow_2525_24181" result="effect2_innerShadow_2525_24181"/>
<feColorMatrix in="SourceAlpha" type="matrix" values="0 0 0 0 0 0 0 0 0 0 0 0 0 0 0 0 0 0 127 0" result="hardAlpha"/>
<feOffset dy="2.5288"/>
<feGaussianBlur stdDeviation="1.2644"/>
<feComposite in2="hardAlpha" operator="arithmetic" k2="-1" k3="1"/>
<feColorMatrix type="matrix" values="0 0 0 0 1 0 0 0 0 1 0 0 0 0 1 0 0 0 0.95 0"/>
<feBlend mode="normal" in2="effect2_innerShadow_2525_24181" result="effect3_innerShadow_2525_24181"/>
</filter>
<filter id="filter1_iiii_2525_24181" x="7.18359" y="32.8418" width="185.525" height="211.117" filterUnits="userSpaceOnUse" color-interpolation-filters="sRGB">
<feFlood flood-opacity="0" result="BackgroundImageFix"/>
<feBlend mode="normal" in="SourceGraphic" in2="BackgroundImageFix" result="shape"/>
<feColorMatrix in="SourceAlpha" type="matrix" values="0 0 0 0 0 0 0 0 0 0 0 0 0 0 0 0 0 0 127 0" result="hardAlpha"/>
<feOffset dy="3.08109"/>
<feGaussianBlur stdDeviation="6.16218"/>
<feComposite in2="hardAlpha" operator="arithmetic" k2="-1" k3="1"/>
<feColorMatrix type="matrix" values="0 0 0 0 1 0 0 0 0 1 0 0 0 0 1 0 0 0 0.3 0"/>
<feBlend mode="normal" in2="shape" result="effect1_innerShadow_2525_24181"/>
<feColorMatrix in="SourceAlpha" type="matrix" values="0 0 0 0 0 0 0 0 0 0 0 0 0 0 0 0 0 0 127 0" result="hardAlpha"/>
<feOffset dy="-3.08109"/>
<feGaussianBlur stdDeviation="6.16218"/>
<feComposite in2="hardAlpha" operator="arithmetic" k2="-1" k3="1"/>
<feColorMatrix type="matrix" values="0 0 0 0 1 0 0 0 0 1 0 0 0 0 1 0 0 0 0.5 0"/>
<feBlend mode="normal" in2="effect1_innerShadow_2525_24181" result="effect2_innerShadow_2525_24181"/>
<feColorMatrix in="SourceAlpha" type="matrix" values="0 0 0 0 0 0 0 0 0 0 0 0 0 0 0 0 0 0 127 0" result="hardAlpha"/>
<feOffset dy="3.08109"/>
<feGaussianBlur stdDeviation="67.784"/>
<feComposite in2="hardAlpha" operator="arithmetic" k2="-1" k3="1"/>
<feColorMatrix type="matrix" values="0 0 0 0 1 0 0 0 0 1 0 0 0 0 1 0 0 0 0.45 0"/>
<feBlend mode="normal" in2="effect2_innerShadow_2525_24181" result="effect3_innerShadow_2525_24181"/>
<feColorMatrix in="SourceAlpha" type="matrix" values="0 0 0 0 0 0 0 0 0 0 0 0 0 0 0 0 0 0 127 0" result="hardAlpha"/>
<feOffset dx="3.08109" dy="3.08109"/>
<feGaussianBlur stdDeviation="3.08109"/>
<feComposite in2="hardAlpha" operator="arithmetic" k2="-1" k3="1"/>
<feColorMatrix type="matrix" values="0 0 0 0 1 0 0 0 0 1 0 0 0 0 1 0 0 0 1 0"/>
<feBlend mode="normal" in2="effect3_innerShadow_2525_24181" result="effect4_innerShadow_2525_24181"/>
</filter>
<filter id="filter2_f_2525_24181" x="87.0067" y="105.566" width="90.0921" height="99.6175" filterUnits="userSpaceOnUse" color-interpolation-filters="sRGB">
<feFlood flood-opacity="0" result="BackgroundImageFix"/>
<feBlend mode="normal" in="SourceGraphic" in2="BackgroundImageFix" result="shape"/>
<feGaussianBlur stdDeviation="6.16218" result="effect1_foregroundBlur_2525_24181"/>
</filter>
<filter id="filter3_iii_2525_24181" x="97.7354" y="108.075" width="65.4434" height="82.6964" filterUnits="userSpaceOnUse" color-interpolation-filters="sRGB">
<feFlood flood-opacity="0" result="BackgroundImageFix"/>
<feBlend mode="normal" in="SourceGraphic" in2="BackgroundImageFix" result="shape"/>
<feColorMatrix in="SourceAlpha" type="matrix" values="0 0 0 0 0 0 0 0 0 0 0 0 0 0 0 0 0 0 127 0" result="hardAlpha"/>
<feOffset dy="3.8638"/>
<feGaussianBlur stdDeviation="7.72761"/>
<feComposite in2="hardAlpha" operator="arithmetic" k2="-1" k3="1"/>
<feColorMatrix type="matrix" values="0 0 0 0 1 0 0 0 0 1 0 0 0 0 1 0 0 0 0.3 0"/>
<feBlend mode="normal" in2="shape" result="effect1_innerShadow_2525_24181"/>
<feColorMatrix in="SourceAlpha" type="matrix" values="0 0 0 0 0 0 0 0 0 0 0 0 0 0 0 0 0 0 127 0" result="hardAlpha"/>
<feOffset dy="-3.8638"/>
<feGaussianBlur stdDeviation="7.72761"/>
<feComposite in2="hardAlpha" operator="arithmetic" k2="-1" k3="1"/>
<feColorMatrix type="matrix" values="0 0 0 0 1 0 0 0 0 1 0 0 0 0 1 0 0 0 0.5 0"/>
<feBlend mode="normal" in2="effect1_innerShadow_2525_24181" result="effect2_innerShadow_2525_24181"/>
<feColorMatrix in="SourceAlpha" type="matrix" values="0 0 0 0 0 0 0 0 0 0 0 0 0 0 0 0 0 0 127 0" result="hardAlpha"/>
<feOffset dy="3.8638"/>
<feGaussianBlur stdDeviation="1.9319"/>
<feComposite in2="hardAlpha" operator="arithmetic" k2="-1" k3="1"/>
<feColorMatrix type="matrix" values="0 0 0 0 1 0 0 0 0 1 0 0 0 0 1 0 0 0 0.95 0"/>
<feBlend mode="normal" in2="effect2_innerShadow_2525_24181" result="effect3_innerShadow_2525_24181"/>
</filter>
<filter id="filter4_f_2525_24181" x="76.9188" y="55.9608" width="82.1145" height="69.7454" filterUnits="userSpaceOnUse" color-interpolation-filters="sRGB">
<feFlood flood-opacity="0" result="BackgroundImageFix"/>
<feBlend mode="normal" in="SourceGraphic" in2="BackgroundImageFix" result="shape"/>
<feGaussianBlur stdDeviation="6.16218" result="effect1_foregroundBlur_2525_24181"/>
</filter>
<filter id="filter5_iii_2525_24181" x="86.8516" y="55.4931" width="57.4658" height="52.8248" filterUnits="userSpaceOnUse" color-interpolation-filters="sRGB">
<feFlood flood-opacity="0" result="BackgroundImageFix"/>
<feBlend mode="normal" in="SourceGraphic" in2="BackgroundImageFix" result="shape"/>
<feColorMatrix in="SourceAlpha" type="matrix" values="0 0 0 0 0 0 0 0 0 0 0 0 0 0 0 0 0 0 127 0" result="hardAlpha"/>
<feOffset dy="3.8638"/>
<feGaussianBlur stdDeviation="7.72761"/>
<feComposite in2="hardAlpha" operator="arithmetic" k2="-1" k3="1"/>
<feColorMatrix type="matrix" values="0 0 0 0 1 0 0 0 0 1 0 0 0 0 1 0 0 0 0.3 0"/>
<feBlend mode="normal" in2="shape" result="effect1_innerShadow_2525_24181"/>
<feColorMatrix in="SourceAlpha" type="matrix" values="0 0 0 0 0 0 0 0 0 0 0 0 0 0 0 0 0 0 127 0" result="hardAlpha"/>
<feOffset dy="-3.8638"/>
<feGaussianBlur stdDeviation="7.72761"/>
<feComposite in2="hardAlpha" operator="arithmetic" k2="-1" k3="1"/>
<feColorMatrix type="matrix" values="0 0 0 0 1 0 0 0 0 1 0 0 0 0 1 0 0 0 0.5 0"/>
<feBlend mode="normal" in2="effect1_innerShadow_2525_24181" result="effect2_innerShadow_2525_24181"/>
<feColorMatrix in="SourceAlpha" type="matrix" values="0 0 0 0 0 0 0 0 0 0 0 0 0 0 0 0 0 0 127 0" result="hardAlpha"/>
<feOffset dy="3.8638"/>
<feGaussianBlur stdDeviation="1.9319"/>
<feComposite in2="hardAlpha" operator="arithmetic" k2="-1" k3="1"/>
<feColorMatrix type="matrix" values="0 0 0 0 1 0 0 0 0 1 0 0 0 0 1 0 0 0 0.95 0"/>
<feBlend mode="normal" in2="effect2_innerShadow_2525_24181" result="effect3_innerShadow_2525_24181"/>
</filter>
<filter id="filter6_f_2525_24181" x="81.3346" y="-22.9589" width="95.6335" height="104.348" filterUnits="userSpaceOnUse" color-interpolation-filters="sRGB">
<feFlood flood-opacity="0" result="BackgroundImageFix"/>
<feBlend mode="normal" in="SourceGraphic" in2="BackgroundImageFix" result="shape"/>
<feGaussianBlur stdDeviation="12.3244" result="effect1_foregroundBlur_2525_24181"/>
</filter>
<filter id="filter7_f_2525_24181" x="72.1414" y="-6.80588" width="87.3774" height="110.793" filterUnits="userSpaceOnUse" color-interpolation-filters="sRGB">
<feFlood flood-opacity="0" result="BackgroundImageFix"/>
<feBlend mode="normal" in="SourceGraphic" in2="BackgroundImageFix" result="shape"/>
<feGaussianBlur stdDeviation="9.24327" result="effect1_foregroundBlur_2525_24181"/>
</filter>
<filter id="filter8_f_2525_24181" x="111.586" y="10.08" width="34.7755" height="31.2594" filterUnits="userSpaceOnUse" color-interpolation-filters="sRGB">
<feFlood flood-opacity="0" result="BackgroundImageFix"/>
<feBlend mode="normal" in="SourceGraphic" in2="BackgroundImageFix" result="shape"/>
<feGaussianBlur stdDeviation="1.54055" result="effect1_foregroundBlur_2525_24181"/>
</filter>
<linearGradient id="paint0_linear_2525_24181" x1="152.518" y1="1.38183" x2="90.9594" y2="64.6588" gradientUnits="userSpaceOnUse">
<stop offset="0.0941878" stop-color="#FFE5DC"/>
<stop offset="0.230705" stop-color="#FFFFE7" stop-opacity="0"/>
</linearGradient>
<linearGradient id="paint1_linear_2525_24181" x1="140.497" y1="27.9728" x2="79.6015" y2="33.7588" gradientUnits="userSpaceOnUse">
<stop stop-color="#FFFFE6"/>
<stop offset="0.360807" stop-color="#D5FFFF"/>
<stop offset="0.977083" stop-color="#D5FFFF" stop-opacity="0"/>
</linearGradient>
<linearGradient id="paint2_linear_2525_24181" x1="145.202" y1="36.7377" x2="97.3751" y2="86.3237" gradientUnits="userSpaceOnUse">
<stop offset="0.0153056" stop-color="#D4FFE7"/>
<stop offset="0.312156" stop-color="#D5FFFF" stop-opacity="0"/>
</linearGradient>
<clipPath id="clip0_2525_24181">
<rect width="220" height="270" fill="white"/>
</clipPath>
</defs>
</svg>
