<svg width="40" height="40" viewBox="0 0 40 40" fill="none" xmlns="http://www.w3.org/2000/svg">
<g clip-path="url(#clip0_277_1630)">
<path d="M25.1928 26.6006L27.2698 25.3993C29.6349 24.0308 30.8164 23.3466 30.9749 22.3719C30.9983 22.2198 31.0056 22.0657 30.9969 21.912C30.9177 20.9308 29.7956 20.1739 27.5536 18.6602L17.1973 11.6702C13.1292 8.92439 12.1941 3.91679 15.05 0.198486M28.8011 5.69893C28.8011 6.57422 28.4534 7.41365 27.8345 8.03257C27.2155 8.65149 26.3761 8.9992 25.5008 8.9992C24.6255 8.9992 23.7861 8.65149 23.1672 8.03257C22.5483 7.41365 22.2005 6.57422 22.2005 5.69893C22.2005 4.82365 22.5483 3.98421 23.1672 3.36529C23.7861 2.74637 24.6255 2.39866 25.5008 2.39866C26.3761 2.39866 27.2155 2.74637 27.8345 3.36529C28.4534 3.98421 28.8011 4.82365 28.8011 5.69893Z" stroke="#009FE3" stroke-width="2" stroke-linecap="round" stroke-linejoin="round"/>
<path d="M17.1969 11.6702C11.6964 17.1707 8.99902 32.3915 8.99902 39.8017M17.1969 11.6702C13.1288 8.92439 12.1937 3.91679 15.0495 0.198486M17.1969 11.6702L23.0186 15.5997M25.1923 26.6006L27.2693 25.3993C29.6345 24.0308 30.816 23.3466 30.9744 22.3719C30.9978 22.2198 31.0052 22.0657 30.9964 21.912C30.9172 20.9308 29.7951 20.1739 27.5531 18.6602L23.0208 15.5997C21.4951 17.5743 20.1892 19.7094 19.1264 21.967C18.1584 24.0066 17.6765 25.0253 17.7667 26.1914L11.1992 24.4004M26.6004 39.8017C24.4597 37.3045 22.2573 33.8612 20.1099 30.6886C18.6072 28.4664 17.8547 27.3531 17.7667 26.1892" stroke="#009FE3" stroke-width="2" stroke-linecap="round" stroke-linejoin="round"/>
</g>
<defs>
<clipPath id="clip0_277_1630">
<rect width="40" height="40" fill="white"/>
</clipPath>
</defs>
</svg>
