<svg width="40" height="40" viewBox="0 0 40 40" fill="none" xmlns="http://www.w3.org/2000/svg">
<path d="M26.6663 9.99992C26.6663 6.85659 26.6663 5.28659 25.6897 4.30992C24.713 3.33325 23.143 3.33325 19.9997 3.33325C16.8563 3.33325 15.2863 3.33325 14.3097 4.30992C13.333 5.28659 13.333 6.85659 13.333 9.99992M3.33301 23.3333C3.33301 17.0483 3.33301 13.9049 5.28634 11.9533C7.23967 10.0016 10.3813 9.99992 16.6663 9.99992H23.333C29.618 9.99992 32.7613 9.99992 34.713 11.9533C36.6647 13.9066 36.6663 17.0483 36.6663 23.3333C36.6663 29.6183 36.6663 32.7616 34.713 34.7132C32.7597 36.6649 29.618 36.6666 23.333 36.6666H16.6663C10.3813 36.6666 7.23801 36.6666 5.28634 34.7132C3.33467 32.7599 3.33301 29.6183 3.33301 23.3333Z" stroke="#009FE3" stroke-width="2"/>
<path d="M22.5 23.3333H17.5M20 20.8333V25.8333" stroke="#009FE3" stroke-width="2" stroke-linecap="round"/>
<path d="M19.9997 29.9998C23.6816 29.9998 26.6663 27.0151 26.6663 23.3332C26.6663 19.6513 23.6816 16.6665 19.9997 16.6665C16.3178 16.6665 13.333 19.6513 13.333 23.3332C13.333 27.0151 16.3178 29.9998 19.9997 29.9998Z" stroke="#009FE3" stroke-width="2"/>
</svg>
