<svg width="40" height="40" viewBox="0 0 40 40" fill="none" xmlns="http://www.w3.org/2000/svg">
<path d="M17.4286 27L11 20.2769L12.8167 18.3774L17.4286 23.1982L27.1807 13L29 14.9022L17.4286 27Z" fill="#009FE3"/>
<path d="M20 1C16.2422 1 12.5687 2.11433 9.44417 4.20208C6.31964 6.28982 3.88436 9.25722 2.4463 12.729C1.00823 16.2008 0.631969 20.0211 1.36509 23.7067C2.09821 27.3923 3.90778 30.7778 6.56498 33.435C9.22218 36.0922 12.6077 37.9018 16.2933 38.6349C19.9789 39.368 23.7992 38.9918 27.271 37.5537C30.7428 36.1156 33.7102 33.6804 35.7979 30.5558C37.8857 27.4313 39 23.7578 39 20C39 14.9609 36.9982 10.1282 33.435 6.56497C29.8718 3.00178 25.0391 1 20 1ZM20 36.2857C16.779 36.2857 13.6303 35.3306 10.9521 33.5411C8.27398 31.7516 6.1866 29.2081 4.95397 26.2323C3.72134 23.2564 3.39883 19.9819 4.02722 16.8228C4.65561 13.6637 6.20667 10.7619 8.48427 8.48426C10.7619 6.20666 13.6637 4.6556 16.8228 4.02721C19.9819 3.39882 23.2565 3.72133 26.2323 4.95396C29.2081 6.18659 31.7516 8.27397 33.5411 10.9521C35.3306 13.6303 36.2857 16.779 36.2857 20C36.2857 24.3192 34.5699 28.4616 31.5157 31.5157C28.4616 34.5699 24.3192 36.2857 20 36.2857Z" fill="#009FE3"/>
</svg>
