<svg width="40" height="40" viewBox="0 0 40 40" fill="none" xmlns="http://www.w3.org/2000/svg">
<path d="M11.4316 5.85994L10.6883 8.07494C10.4113 8.9163 9.94081 9.68099 9.31474 10.3076C8.68867 10.9343 7.92441 11.4054 7.08331 11.6833L4.84164 12.4266C4.76591 12.4511 4.69991 12.499 4.65309 12.5634C4.60627 12.6278 4.58105 12.7053 4.58105 12.7849C4.58105 12.8645 4.60627 12.9421 4.65309 13.0065C4.69991 13.0708 4.76591 13.1187 4.84164 13.1433L7.08331 13.8883C7.91675 14.1659 8.67398 14.634 9.29486 15.2554C9.91573 15.8769 10.3831 16.6346 10.66 17.4683L11.4033 19.7099C11.4278 19.7857 11.4757 19.8517 11.5401 19.8985C11.6045 19.9453 11.682 19.9705 11.7616 19.9705C11.8412 19.9705 11.9188 19.9453 11.9832 19.8985C12.0476 19.8517 12.0954 19.7857 12.12 19.7099L12.89 17.4966C13.168 16.6635 13.6358 15.9065 14.2565 15.2852C14.8772 14.6639 15.6338 14.1954 16.4666 13.9166L18.7083 13.1716C18.784 13.1471 18.85 13.0992 18.8969 13.0348C18.9437 12.9704 18.9689 12.8929 18.9689 12.8133C18.9689 12.7337 18.9437 12.6561 18.8969 12.5917C18.85 12.5274 18.784 12.4795 18.7083 12.4549L16.495 11.6833C15.6532 11.4066 14.8884 10.9359 14.2621 10.3091C13.6359 9.68224 13.1659 8.91693 12.89 8.07494L12.1466 5.8316C12.1193 5.75669 12.0688 5.69241 12.0026 5.648C11.9363 5.6036 11.8577 5.58137 11.778 5.58452C11.6983 5.58767 11.6216 5.61604 11.5591 5.66553C11.4966 5.71503 11.4513 5.7831 11.43 5.85994M24.8666 14.6616L23.8266 17.7616C23.4396 18.94 22.7811 20.0109 21.9042 20.8881C21.0273 21.7653 19.9566 22.4242 18.7783 22.8116L15.6416 23.8549C15.5359 23.8893 15.4438 23.9563 15.3784 24.0463C15.3131 24.1362 15.2779 24.2446 15.2779 24.3558C15.2779 24.467 15.3131 24.5753 15.3784 24.6653C15.4438 24.7552 15.5359 24.8222 15.6416 24.8566L18.7783 25.8999C19.9457 26.2877 21.0063 26.9427 21.8758 27.8128C22.7453 28.6829 23.3996 29.744 23.7866 30.9116L24.8283 34.0499C24.8639 34.1543 24.9313 34.2448 25.0209 34.309C25.1106 34.3731 25.2181 34.4076 25.3283 34.4076C25.4385 34.4076 25.546 34.3731 25.6357 34.309C25.7253 34.2448 25.7927 34.1543 25.8283 34.0499L26.91 30.9499C27.2981 29.783 27.9528 28.7225 28.8222 27.8525C29.6915 26.9826 30.7516 26.3272 31.9183 25.9383L35.0533 24.8966C35.159 24.8622 35.2512 24.7952 35.3165 24.7053C35.3819 24.6153 35.4171 24.507 35.4171 24.3958C35.4171 24.2846 35.3819 24.1762 35.3165 24.0863C35.2512 23.9963 35.159 23.9293 35.0533 23.8949L31.9566 22.8116C30.7781 22.4251 29.707 21.7666 28.8303 20.8892C27.9535 20.0119 27.2957 18.9404 26.91 17.7616L25.8683 14.6216C25.8287 14.5185 25.7578 14.4304 25.6656 14.3697C25.5733 14.3089 25.4643 14.2787 25.354 14.2831C25.2436 14.2875 25.1374 14.3264 25.0503 14.3943C24.9632 14.4622 24.8979 14.5557 24.8666 14.6616Z" stroke="#009FE3" stroke-width="2" stroke-linecap="round" stroke-linejoin="round"/>
</svg>
